<svg width="101" height="45" viewBox="0 0 101 45" fill="none" xmlns="http://www.w3.org/2000/svg">
<path d="M55.7463 18.6522C55.3544 18.3321 54.9714 17.9906 54.5984 17.6276C53.234 16.2993 52.0233 14.7124 51.0022 12.9085L51.0021 12.9085C49.8181 10.8168 49.1161 8.50628 48.4209 6.21097L48.4158 6.19412C47.8605 4.36082 47.274 2.4247 46.4225 0.613971L46.4225 0.613865C46.4024 0.571211 46.4092 0.545226 46.4225 0.524173L46.4225 0.524171C46.4292 0.513721 46.4372 0.506595 46.4437 0.502571C46.4457 0.503878 46.4483 0.505644 46.4512 0.508001L46.4513 0.508031C48.4758 2.11154 50.9135 2.99782 52.7655 3.58172L55.7463 18.6522ZM55.7463 18.6522C57.6093 16.8865 59.7213 15.4801 61.9873 14.4994C60.1237 12.8901 58.0922 11.4942 56.2512 10.2803L56.725 9.40398C58.8814 10.3366 60.9636 11.6465 63.0463 12.9963L62.7744 13.4159L63.0463 12.9963C63.4041 13.2282 63.7497 13.472 64.085 13.7265C65.3993 13.3186 66.723 13.0008 68.0478 12.7466C66.8052 10.4895 65.1013 8.68417 63.1248 7.51035C60.4616 5.92915 57.5208 5.03338 54.611 4.14946L54.6081 4.14858C54.0059 3.96566 53.3803 3.77561 52.7656 3.58174L55.7463 18.6522ZM63.8377 13.8039L63.8387 13.8036L63.9886 14.2781M63.8377 13.8039L63.9886 14.2781M63.8377 13.8039L63.8354 13.8047L63.986 14.2815L63.9886 14.2781M63.8377 13.8039L64.0388 14.2139L64.0131 14.2469L64.0129 14.247L63.9886 14.2781M63.8334 13.8053C63.8327 13.8056 63.8334 13.8053 63.8345 13.805L63.8334 13.8053Z" fill="#6FCF97" stroke="#6FCF97"/>
<path d="M69.5104 15.0087L69.5093 15.0089L69.4802 15.0136C69.4799 15.0137 69.4796 15.0137 69.4794 15.0138C69.4645 15.0163 69.4626 15.0166 69.4613 15.0167C69.4603 15.0169 69.4597 15.0169 69.4536 15.018L69.4505 15.0186C68.1281 15.2424 66.8178 15.5246 65.5218 15.8932L65.5208 15.8935C65.5156 15.8949 65.5146 15.8952 65.5127 15.8958C65.5105 15.8965 65.5072 15.8975 65.494 15.9013L65.4911 15.9022L65.4797 15.9055L65.4593 15.9114C65.1694 15.9946 64.881 16.0811 64.5939 16.1728L69.5104 15.0087ZM69.5104 15.0087C72.1755 14.5611 74.8672 14.3501 77.593 14.1364C78.5172 14.0639 79.4454 13.9912 80.3778 13.9088L80.3338 13.4107L80.3778 13.9088C83.5863 13.6252 87.0568 13.0787 90.1 11.6434L89.8867 11.1912M69.5104 15.0087L89.8867 11.1912M89.8867 11.1912L90.1 11.6434C90.1372 11.6259 90.1654 11.6217 90.1857 11.6217C90.2391 11.6217 90.308 11.6567 90.3481 11.7329C90.3663 11.7673 90.3728 11.801 90.3709 11.8303C90.3692 11.8567 90.3602 11.8919 90.3269 11.9349C88.6556 14.0957 87.3491 16.4635 86.0642 18.7924C85.9116 19.069 85.7593 19.345 85.6067 19.62C84.1617 22.2252 82.6868 24.7556 80.6754 26.9695L81.0455 27.3057M89.8867 11.1912L81.0455 27.3057M64.0844 15.8152L64.2474 16.2879L64.2358 16.292L64.2162 16.2988C61.648 17.1844 59.349 18.6476 57.4029 20.5075L57.4028 20.5077L57.3812 20.5285L57.3806 20.5291L57.3709 20.5385L57.3607 20.5483L57.3599 20.5491C54.4357 23.3601 52.3203 27.0617 51.302 31.0142M64.0844 15.8152L51.302 31.0142M64.0844 15.8152L64.2474 16.2879C64.276 16.278 64.2702 16.2799 64.266 16.2814C64.2626 16.2825 64.2601 16.2833 64.2769 16.2775M64.0844 15.8152L64.2769 16.2775M51.302 31.0142C51.2832 31.0873 51.3013 31.1394 51.3354 31.18M51.302 31.0142L51.3354 31.18M51.6056 31.2099L51.6057 31.2099C55.206 28.2515 58.9343 25.3062 63.4593 23.6679C64.2078 23.3969 64.9663 23.1243 65.7319 22.8578L65.7326 22.8576L65.7761 22.8425L65.7785 22.8416L65.8249 22.8256C66.7268 22.5124 67.6398 22.208 68.5602 21.9242L68.5626 21.9235L68.5727 21.9204L68.5855 21.9165L68.588 21.9157L68.6195 21.9061C70.4726 21.3367 72.3606 20.8511 74.2573 20.5514L74.5077 21.5147C72.7307 22.1673 70.9647 22.8346 69.2311 23.5578L69.2296 23.5584L69.2009 23.5703L69.1988 23.5711L69.1758 23.5807L69.1753 23.5809C68.6172 23.8142 68.0626 24.0543 67.5115 24.3009C67.5114 24.3009 67.5113 24.3009 67.5112 24.301C67.5112 24.301 67.5111 24.301 67.5111 24.301L67.4747 24.3172L67.4743 24.3174L67.4414 24.3321L67.4403 24.3326C66.2966 24.846 65.1721 25.3895 64.0745 25.9765C61.5674 27.3173 59.1996 28.881 57.0535 30.8099C53.2901 34.1925 50.2184 38.6489 49.0566 43.5693L48.57 43.4544L49.0566 43.5693C48.9924 43.8411 49.1408 44.0817 49.3679 44.1442C49.4022 44.1536 49.439 44.1586 49.4774 44.1586C49.6999 44.1586 49.882 44.0089 49.9204 43.8462L49.9205 43.8461C50.5277 41.2742 51.6124 38.8808 53.1193 36.7611L53.2259 36.6111L53.4044 36.566C53.4784 36.5474 53.553 36.5273 53.6307 36.5045L51.6056 31.2099ZM51.6056 31.2099C51.5819 31.2294 51.5609 31.2402 51.5435 31.2464C51.5259 31.2526 51.5083 31.2555 51.4905 31.2555C51.437 31.2555 51.3762 31.2286 51.3354 31.18M51.6056 31.2099L51.3354 31.18M81.0455 27.3057L80.6754 26.9695C76.9545 31.065 72.1408 34.1571 66.7018 35.2029L81.0455 27.3057ZM64.2769 16.2775C64.3823 16.2416 64.488 16.2067 64.5939 16.1729L64.2769 16.2775Z" fill="#6FCF97" stroke="#6FCF97"/>
<line x1="1" y1="41" x2="44" y2="41" stroke="#6FCF97" stroke-width="2" stroke-linecap="round"/>
<line x1="57" y1="41" x2="100" y2="41" stroke="#6FCF97" stroke-width="2" stroke-linecap="round"/>
</svg>
