<svg width="157" height="44" viewBox="0 0 157 44" fill="none" xmlns="http://www.w3.org/2000/svg">
<path d="M110.639 38H44.1111V44H110.639V38Z" fill="#BCECE3"/>
<path d="M50.6493 40.9786C50.6493 41.1063 50.6493 41.2339 50.6068 41.3616C50.5644 41.4893 50.5219 41.6169 50.437 41.7871C50.3521 41.9148 50.2672 42.0424 50.1398 42.1701C50.0125 42.2552 49.8426 42.3403 49.6304 42.4254C49.4181 42.5105 49.1633 42.5105 48.9086 42.5105H47.5925V42.4254C47.7623 42.4254 47.8897 42.3829 47.9321 42.3403C47.9746 42.2978 48.0171 42.1701 48.0171 41.9999V39.9999C48.0171 39.8297 47.9746 39.7446 47.9321 39.6595C47.8897 39.6169 47.7623 39.5744 47.5925 39.5744V39.4893H48.8237C49.1209 39.4893 49.3332 39.5318 49.5454 39.5744C49.7577 39.6169 49.9275 39.702 50.0549 39.8297C50.1823 39.9148 50.3096 40.0424 50.3946 40.1701C50.4795 40.2978 50.5219 40.4254 50.5644 40.5531C50.6493 40.7233 50.6493 40.851 50.6493 40.9786ZM50.1823 41.0212C50.1823 40.8935 50.1823 40.7659 50.1398 40.6382C50.0974 40.5105 50.0549 40.3829 50.0125 40.2552C49.9275 40.1276 49.8426 40.0424 49.7577 39.9573C49.6304 39.8722 49.503 39.7871 49.3332 39.7446C49.1633 39.702 48.9511 39.6595 48.7388 39.6595C48.6539 39.6595 48.569 39.6595 48.569 39.702C48.5265 39.7446 48.5265 39.7871 48.5265 39.8297V42.1701C48.5265 42.2552 48.5265 42.2978 48.569 42.2978C48.6114 42.3403 48.6539 42.3403 48.7388 42.3403C49.6728 42.3403 50.1823 41.9148 50.1823 41.0212Z" fill="#006C53"/>
<path d="M54.9373 42.0001V40.0001C54.9373 39.8298 54.8948 39.7447 54.8524 39.6596C54.8099 39.6171 54.6826 39.5745 54.4703 39.5745V39.4894H55.8288V39.5745C55.6166 39.5745 55.5317 39.6171 55.4468 39.6596C55.4043 39.7022 55.3618 39.8298 55.3618 40.0001V42.0426C55.3618 42.2128 55.4043 42.2979 55.4468 42.383C55.4892 42.4256 55.6166 42.4681 55.8288 42.4681V42.5532H54.4703V42.4681C54.6826 42.4681 54.7675 42.4256 54.8524 42.383C54.9373 42.2979 54.9373 42.1703 54.9373 42.0001ZM55.192 38.6809C55.2345 38.6809 55.3194 38.7235 55.3618 38.766C55.4043 38.8086 55.4468 38.8511 55.4468 38.9362C55.4468 38.9788 55.4043 39.0639 55.3618 39.1064C55.3194 39.149 55.2769 39.1915 55.192 39.1915C55.1496 39.1915 55.0647 39.149 55.0222 39.1064C54.9797 39.0639 54.9373 39.0213 54.9373 38.9362C54.9373 38.8937 54.9797 38.8086 55.0222 38.766C55.0647 38.7235 55.1071 38.6809 55.192 38.6809Z" fill="#006C53"/>
<path d="M62.8764 39.4893V39.5744C62.7491 39.5744 62.6642 39.6169 62.5792 39.702C62.4943 39.7871 62.367 39.9148 62.2396 40.1276L61.5603 41.1488V42.0424C61.5603 42.2127 61.6028 42.3403 61.6452 42.3829C61.6877 42.4254 61.8151 42.468 62.0273 42.468V42.5531H60.6263V42.468C60.8386 42.468 60.9659 42.4254 61.0084 42.3829C61.0509 42.3403 61.0933 42.2127 61.0933 41.9999V41.1914L60.4989 40.2978C60.3291 40.085 60.2442 39.9148 60.1593 39.8297C60.0744 39.7446 60.0319 39.6595 59.947 39.6595C59.9046 39.6169 59.8197 39.6169 59.7347 39.6169V39.5318H61.0084V39.5744C60.7961 39.5744 60.6688 39.6169 60.6688 39.702C60.6688 39.7446 60.7112 39.8297 60.7537 39.9148L61.433 40.9361L62.0698 39.9148C62.1122 39.8297 62.1547 39.7871 62.1547 39.7446C62.1547 39.702 62.1122 39.6595 62.0698 39.6169C62.0273 39.6169 61.9424 39.5744 61.8151 39.5744V39.4893H62.8764Z" fill="#006C53"/>
<path d="M67.504 42.1277C67.504 42.2128 67.5465 42.2554 67.589 42.2979C67.6314 42.3405 67.7588 42.3405 68.0135 42.3405H68.1409C68.4805 42.3405 68.6928 42.2979 68.8202 42.2128C68.9475 42.1277 69.0749 41.9575 69.2023 41.7447H69.3296L69.1174 42.5107H66.6549V42.4256C66.8248 42.4256 66.9097 42.383 66.9946 42.3405C67.037 42.2979 67.0795 42.1703 67.0795 42.0426V40.0001C67.0795 39.8299 67.037 39.7447 66.9946 39.7022C66.9521 39.6596 66.8248 39.6171 66.6549 39.6171V39.532H69.0749V40.1703H68.9475C68.9051 39.9575 68.8626 39.8299 68.7777 39.7873C68.6928 39.7447 68.523 39.7022 68.2682 39.7022H67.6314C67.589 39.7022 67.5465 39.7022 67.504 39.7447C67.504 39.7447 67.4616 39.7873 67.4616 39.8724V40.8937H68.1833C68.3956 40.8937 68.523 40.8511 68.5654 40.8086C68.6079 40.766 68.6503 40.6384 68.6928 40.4682H68.7777V41.532H68.6928C68.6503 41.3618 68.6079 41.2341 68.5654 41.149C68.523 41.1064 68.3956 41.0639 68.1833 41.0639H67.504V42.1277Z" fill="#006C53"/>
<path d="M74.212 39.6595H73.9573C73.7025 39.6595 73.5327 39.7021 73.4478 39.7447C73.3629 39.8298 73.278 39.9574 73.2355 40.2127H73.1082L73.1506 39.4468H75.7404L75.7828 40.2127H75.6555C75.613 39.9574 75.5281 39.7872 75.4432 39.7447C75.3583 39.6595 75.1885 39.6595 74.9337 39.6595H74.679V42C74.679 42.1702 74.7215 42.2978 74.7639 42.3404C74.8064 42.3829 74.9337 42.4255 75.1036 42.4255V42.5106H73.7874V42.4255C73.9573 42.4255 74.0846 42.3829 74.1271 42.3404C74.1695 42.2978 74.212 42.1702 74.212 41.9574V39.6595Z" fill="#006C53"/>
<path d="M79.9859 42.0001V40.0001C79.9859 39.8298 79.9435 39.7447 79.901 39.6596C79.8586 39.6171 79.7312 39.5745 79.5189 39.5745V39.4894H80.8775V39.5745C80.6652 39.5745 80.5803 39.6171 80.4954 39.6596C80.4529 39.7022 80.4105 39.8298 80.4105 40.0001V42.0426C80.4105 42.2128 80.4529 42.2979 80.4954 42.383C80.5379 42.4256 80.6652 42.4681 80.8775 42.4681V42.5532H79.5189V42.4681C79.7312 42.4681 79.8161 42.4256 79.901 42.383C79.9435 42.2979 79.9859 42.1703 79.9859 42.0001ZM80.1982 38.6809C80.2407 38.6809 80.3256 38.7235 80.368 38.766C80.4105 38.8086 80.4529 38.8511 80.4529 38.9362C80.4529 38.9788 80.4105 39.0639 80.368 39.1064C80.3256 39.149 80.2831 39.1915 80.1982 39.1915C80.1558 39.1915 80.0708 39.149 80.0284 39.1064C79.9859 39.0639 79.9435 39.0213 79.9435 38.9362C79.9435 38.8937 79.9859 38.8086 80.0284 38.766C80.1133 38.7235 80.1558 38.6809 80.1982 38.6809Z" fill="#006C53"/>
<path d="M86.3542 41.8725C86.3542 41.7448 86.3118 41.6171 86.1844 41.4895C86.057 41.3618 85.9721 41.2767 85.8023 41.1916C85.675 41.1065 85.5051 41.0214 85.3778 40.9363C85.2504 40.8512 85.123 40.7661 84.9957 40.5959C84.9108 40.4682 84.8258 40.298 84.8258 40.1278C84.8258 39.915 84.9108 39.7022 85.0806 39.5746C85.2504 39.4469 85.4202 39.3618 85.6325 39.3618C85.7599 39.3618 85.8872 39.4044 86.057 39.4469C86.1844 39.4895 86.3118 39.532 86.3118 39.532C86.3967 39.532 86.4391 39.4895 86.4391 39.3618H86.5241L86.609 40.3405C86.5241 40.0852 86.4391 39.8725 86.2693 39.7448C86.0995 39.6171 85.9721 39.532 85.7599 39.532C85.6325 39.532 85.5051 39.5746 85.4202 39.6597C85.3353 39.7448 85.2928 39.8299 85.2928 39.9576C85.2928 40.0852 85.3353 40.2129 85.4627 40.298C85.5476 40.4256 85.7174 40.5108 85.9721 40.681C86.2693 40.8512 86.4816 41.0214 86.609 41.149C86.7363 41.3193 86.8212 41.4895 86.8212 41.6597C86.8212 41.915 86.7363 42.0852 86.5665 42.2554C86.3967 42.4256 86.1844 42.5108 85.8872 42.5108C85.7174 42.5108 85.59 42.4682 85.4202 42.4256C85.2504 42.3831 85.1655 42.3405 85.123 42.3405C85.0806 42.3405 85.0806 42.3405 85.0381 42.3831C84.9957 42.4256 84.9957 42.4682 84.9957 42.5108H84.9108L84.7834 41.532H84.8683C84.9957 41.8299 85.123 42.0001 85.2504 42.1278C85.4202 42.2554 85.59 42.3405 85.7599 42.3405C85.9297 42.3405 86.057 42.298 86.1844 42.2129C86.3118 42.1703 86.3542 42.0427 86.3542 41.8725Z" fill="#006C53"/>
<path d="M93.8688 39.4893V39.5744C93.7415 39.5744 93.6566 39.6169 93.5717 39.702C93.4867 39.7871 93.3594 39.9148 93.232 40.1276L92.5527 41.1488V42.0424C92.5527 42.2127 92.5952 42.3403 92.6376 42.3829C92.6801 42.4254 92.8075 42.468 93.0197 42.468V42.5531H91.6187V42.468C91.831 42.468 91.9583 42.4254 92.0008 42.3829C92.0433 42.3403 92.0857 42.2127 92.0857 41.9999V41.1914L91.4913 40.2978C91.3215 40.085 91.2366 39.9148 91.1517 39.8297C91.0668 39.7446 91.0243 39.6595 90.9394 39.6595C90.897 39.6169 90.8121 39.6169 90.7271 39.6169V39.5318H92.0008V39.5744C91.7885 39.5744 91.6612 39.6169 91.6612 39.702C91.6612 39.7446 91.7036 39.8297 91.7461 39.9148L92.4254 40.9361L93.0622 39.9148C93.1046 39.8297 93.1471 39.7871 93.1471 39.7446C93.1471 39.702 93.1046 39.6595 93.0622 39.6169C93.0197 39.6169 92.9348 39.5744 92.8075 39.5744V39.4893H93.8688Z" fill="#006C53"/>
<path d="M98.4965 42.1277C98.4965 42.2128 98.5389 42.2554 98.5814 42.2979C98.6238 42.3405 98.7512 42.3405 99.0059 42.3405H99.1333C99.473 42.3405 99.6852 42.2979 99.8126 42.2128C99.94 42.1277 100.067 41.9575 100.195 41.7447H100.322L100.11 42.5107H97.6474V42.4256C97.8172 42.4256 97.9021 42.383 97.987 42.3405C98.0295 42.2979 98.0719 42.1703 98.0719 42.0426V40.0001C98.0719 39.8299 98.0295 39.7447 97.987 39.7022C97.9446 39.6596 97.8172 39.6171 97.6474 39.6171V39.532H100.067V40.1703H99.94C99.8975 39.9575 99.8551 39.8299 99.7701 39.7873C99.6852 39.7447 99.5154 39.7022 99.2607 39.7022H98.6238C98.5814 39.7022 98.5389 39.7022 98.4965 39.7447C98.4965 39.7447 98.454 39.7873 98.454 39.8724V40.8937H99.1758C99.388 40.8937 99.5154 40.8511 99.5579 40.8086C99.6003 40.766 99.6428 40.6384 99.6852 40.4682H99.7701V41.532H99.6852C99.6428 41.3618 99.6003 41.2341 99.5579 41.149C99.5154 41.1064 99.388 41.0639 99.1758 41.0639H98.4965V42.1277Z" fill="#006C53"/>
<path d="M107.2 39.5744C107.115 39.5744 107.072 39.5744 107.03 39.6169C106.988 39.6169 106.945 39.6595 106.903 39.702C106.86 39.7446 106.818 39.7871 106.818 39.8722C106.818 39.9573 106.775 40.0424 106.775 40.1701V42.5956H106.69L104.653 40.085V41.8722C104.653 42.085 104.695 42.2552 104.737 42.3403C104.78 42.4254 104.907 42.468 105.077 42.468V42.5531H104.016V42.468C104.186 42.468 104.313 42.4254 104.398 42.3403C104.44 42.2552 104.483 42.1276 104.483 41.8722V39.8722C104.398 39.7446 104.313 39.702 104.27 39.6595C104.228 39.6169 104.143 39.6169 104.058 39.6169V39.5318H104.822L106.563 41.702V40.1701C106.563 39.9573 106.521 39.7871 106.478 39.702C106.436 39.6169 106.308 39.5744 106.138 39.5744V39.4893H107.2V39.5744Z" fill="#006C53"/>
<path d="M42.9224 24.8935C42.6677 24.7658 42.5403 24.3403 42.5403 23.6169C42.5403 23.0637 42.6252 22.4254 42.6677 21.702C42.795 20.936 42.88 19.8297 42.88 19.1063C42.88 17.6169 42.5828 16.8935 41.9459 16.8935C40.7996 16.8935 39.1863 19.8297 37.4032 25.2339C37.4881 24.3403 37.573 23.4041 37.6579 22.4254C38.0825 17.8297 38.5071 13.0637 39.4411 8.72328V8.63818C39.4411 8.38286 39.2712 8.21265 39.059 8.21265C38.8467 8.21265 38.6769 8.38286 38.6344 8.51052C37.9551 9.82967 37.3183 11.2765 36.6815 12.7233L36.5116 13.1488C36.4692 13.2765 36.3843 13.4467 36.2994 13.6595C35.4078 15.702 33.1152 21.1914 31.1623 21.1914C30.5679 21.1914 30.1433 20.6807 30.1433 19.9573V19.8297C30.1858 19.8297 30.2282 19.8297 30.2707 19.8297C30.5679 19.8297 30.9075 19.7446 31.2047 19.6169C32.3935 19.1488 32.818 18.4254 32.818 17.9148C32.818 17.4892 32.5633 17.1914 32.3086 17.0212C32.0963 16.8935 31.884 16.8084 31.5868 16.8084C30.2282 16.8084 29.2093 18.468 29.2093 19.9999C29.2093 21.0637 29.5914 21.7446 30.2707 21.9573C30.5254 22.0424 30.7802 22.085 31.0349 22.085C33.4549 22.085 35.3229 17.9148 37.2334 13.4892C37.4881 12.9361 37.7429 12.3829 37.9976 11.7871C37.0636 17.319 36.2145 25.1914 36.2145 27.702C36.2569 28.4254 36.3418 28.8935 36.639 28.8935C36.8937 28.8935 37.1485 28.7658 37.4457 27.7446C38.7618 23.4467 40.2053 19.9573 41.3091 18.4254C41.4789 18.2126 41.7761 17.7871 41.9459 17.7446C42.0309 17.7871 42.1582 18.1701 42.1582 19.1488C42.1582 19.6595 42.1158 20.2978 42.0733 20.936C41.9884 21.5318 41.8186 22.7658 41.8186 23.5743C41.8186 24.6382 42.0733 25.319 42.6252 25.6169C42.7101 25.6595 42.795 25.702 42.88 25.702C43.0922 25.702 43.2621 25.5318 43.2621 25.319C43.1771 25.1488 43.0922 24.9786 42.9224 24.8935ZM31.5019 17.6169C31.5868 17.6169 31.9265 17.6169 31.9265 17.8722C31.9265 17.9573 31.884 18.085 31.7566 18.2126C31.5444 18.468 30.8226 18.936 30.2282 18.9786C30.483 18.1275 30.95 17.6169 31.5019 17.6169Z" fill="#BCECE3"/>
<path d="M74.6366 18.4256L74.5092 18.4681C73.4054 18.8937 72.4714 19.4894 71.6222 20.2128C71.4949 20 71.3675 19.7873 71.1552 19.6171C70.8581 19.3192 70.476 19.1915 70.0939 19.1915H69.924C69.3297 19.2766 68.4381 19.7873 67.4616 21.7447C67.0371 22.5958 66.6974 23.532 66.4002 24.6383C66.6125 22.1703 66.8672 20.1277 67.1644 18.6383L67.2069 18.5107V18.4681C67.2069 18.383 67.1644 18.2979 67.0795 18.2554L66.9946 18.2128C66.9097 18.1703 66.8672 18.1703 66.7823 18.1703C66.7399 18.1703 66.6974 18.1703 66.655 18.1703C66.4002 18.2128 66.2304 18.383 66.103 18.7235C65.1266 19.7022 63.7255 20.8937 62.4943 21.4043C62.1972 21.532 61.9424 21.5745 61.7301 21.5745C61.2631 21.5745 60.9659 21.3617 60.7961 20.8937C60.6688 20.5107 60.5838 19.9575 60.5838 19.3192C60.5838 19.1064 60.5839 18.9362 60.6263 18.7235C60.6263 18.5532 60.6688 18.383 60.6688 18.1703C60.6688 18.0852 60.5838 17.9575 60.4565 17.8724H60.414C60.414 17.8724 60.414 17.8724 60.3716 17.8724C60.3716 17.8298 60.3716 17.8298 60.3716 17.7873V17.7022C60.3716 17.532 60.2867 17.3617 60.0319 17.2766C59.8197 17.1915 59.6074 17.1915 59.4376 17.1915C57.2723 17.1915 56.126 19.6171 56.0411 21.0639C53.6212 25.4469 51.5409 28.1277 49.8851 29.1064C49.5455 29.3192 49.2483 29.4043 48.9511 29.4043C47.083 29.4043 46.7859 25.0639 46.7859 22.5107C46.7859 21.7873 46.7859 21.2766 46.8283 21.0213C46.9981 16.766 47.8048 12.2128 48.4841 9.36175C52.0928 9.02132 55.9562 8.89366 61.3905 8.85111C61.7726 8.85111 62.0273 8.6809 62.0273 8.46813C62.0273 8.34047 61.9424 8.17026 61.3905 8.17026H61.348C56.4232 8.21281 52.1352 8.34047 48.6114 8.59579L48.6963 8.29792C48.7388 8.12771 49.3756 5.61707 49.4181 5.48941C49.4605 5.3192 49.5455 5.10643 49.5879 4.93622C49.6728 4.80856 49.6728 4.63834 49.6728 4.55324C49.6728 4.42558 49.6304 4.34047 49.5879 4.25537C49.5455 4.12771 49.4181 4.0426 49.3332 4.00005C49.2907 3.82983 49.2058 3.82983 49.1209 3.82983H49.036C48.8662 3.87239 48.6963 4.00005 48.6114 4.17026C48.569 4.21281 48.569 4.25537 48.569 4.29792L48.5265 4.38303C48.3567 4.93622 47.635 7.87239 47.4227 8.55324C43.347 8.85111 44.6631 8.72345 43.347 8.89366L43.1771 8.93622C41.4789 9.19154 40.6298 9.53196 40.6298 9.91494C40.6298 10.1703 40.9695 10.2979 41.5214 10.2979C42.0309 10.2979 42.7526 10.1703 43.347 9.78728C44.1536 9.57451 44.8754 9.57451 47.2529 9.4043C46.149 13.7022 45.5122 18.3405 45.5122 22.1277C45.5122 23.6596 45.5971 25.0213 45.8094 26.2128C46.1066 27.8298 46.616 29.0213 47.2953 29.6596C47.7199 30.0426 48.2293 30.2554 48.7813 30.2554C49.2483 30.2554 49.7153 30.0852 50.2672 29.7873C51.9654 28.8086 54.0033 26.2554 56.3383 22.1703C56.5081 22.383 56.678 22.4681 56.9327 22.4681C57.6544 22.4681 58.5884 21.6171 59.6923 19.8298C59.7347 21.9149 60.7112 22.383 61.5179 22.383C62.8764 22.383 64.6596 21.0639 65.9332 19.9149C65.9332 19.9575 65.9332 20.0426 65.9332 20.0852C65.636 21.7873 65.3388 24.3405 65.1266 27.0639C65.0841 27.8298 64.9992 28.2979 64.9568 28.6809C64.8718 29.3192 64.8718 29.6596 64.8718 30.7234C64.8718 32.1703 64.9568 33.1915 65.0841 33.7873C65.0841 33.8298 65.1266 33.8724 65.169 33.9149V33.9575C65.2539 34.0426 65.3389 34.0852 65.4662 34.0852C65.5511 34.0852 65.5936 34.0426 65.6785 34L65.721 33.9575C65.7634 33.9149 65.8483 33.8298 65.8483 33.7022C65.8908 31.8724 65.9757 31.2766 66.1455 30.0426C66.188 29.6596 66.2729 29.2341 66.3578 28.6383C66.7399 25.8724 67.3343 23.7447 68.1409 22.1277C69.0325 20.4256 69.5844 20.0852 69.8816 20.0852C70.2637 20.0852 70.5184 20.6809 70.6882 21.1915C69.8391 22.1703 69.2447 23.3192 68.9476 24.4681C68.8202 24.8511 68.7777 25.2766 68.7777 25.6596C68.7777 25.8724 68.7777 26.0426 68.8202 26.2128C68.9476 26.766 69.2447 27.1064 69.6693 27.1064H69.7967C70.2212 27.0639 70.7307 26.6383 71.2402 25.8724C71.877 24.9362 72.2166 23.7873 72.2166 22.5532C72.2166 22 72.1317 21.4894 72.0043 21.0213C72.811 20.2979 73.745 19.7022 74.8064 19.2766C74.9338 19.2341 75.0611 19.0639 75.0611 18.8937C75.0611 18.8511 75.0611 18.8086 75.0187 18.766C74.9762 18.5107 74.8489 18.4256 74.6366 18.4256ZM57.4846 21.2766C57.4846 21.2766 57.4422 21.2341 57.4422 21.149C57.4422 20.5107 58.3762 18.5532 59.6498 18C59.6923 18 59.7347 17.9575 59.8197 17.9575C58.4186 20.5958 57.6969 21.2766 57.4846 21.2766ZM70.858 22.2554C70.858 23.7447 69.924 26.1703 69.6693 26.2128C69.6693 26.2128 69.6268 26.1703 69.5844 26.0426C69.5844 25.9575 69.5419 25.8298 69.5419 25.7022C69.5419 25.4043 69.5844 25.0639 69.6693 24.6809C69.8391 24.0852 70.1788 23.1915 70.858 22.2554Z" fill="#BCECE3"/>
<path d="M120.531 16.468C120.488 16.3403 120.319 16.2552 120.191 16.2552C120.149 16.2552 120.064 16.2552 119.979 16.2978C119.852 16.3829 119.682 16.4254 119.512 16.4254C119.172 16.4254 118.833 16.2552 118.408 16.1275L118.238 16.085C117.686 15.8722 117.092 15.6169 116.498 15.6169C114.969 15.6169 113.78 17.1488 112.634 20.5105L112.846 18.468C112.974 18.3403 113.016 18.2126 113.016 18.0424V17.9999C113.016 17.8297 112.931 17.6595 112.846 17.5743C112.719 17.4467 112.592 17.3616 112.507 17.319C112.422 17.2765 112.337 17.2765 112.294 17.2765C112.294 17.2765 112.294 17.2765 112.252 17.2765C112.167 17.2765 112.082 17.319 111.997 17.3616C111.912 17.4041 111.87 17.4467 111.785 17.5318C111.743 17.5743 111.743 17.6169 111.7 17.702C110.724 19.0637 109.068 20.9361 107.879 22.2978C107.582 22.6382 107.327 22.9361 107.03 23.2765C102.7 28.2552 95.185 33.9999 88.1798 33.9999C88.0949 33.9999 88.01 33.9999 87.9251 33.9999H87.8826C87.5854 33.9999 87.2882 33.9999 86.9911 33.9573C84.189 33.6169 82.8304 31.9999 83.1276 29.3616C83.2974 27.8297 84.0616 26.0424 85.2504 24.2978C87.3307 21.2765 90.812 17.702 95.6095 13.6595C95.8642 13.4467 96.119 13.2765 96.3312 13.0637L96.4162 13.0212C96.4586 12.9786 96.4586 12.9361 96.5011 12.9361C96.7983 12.6382 96.9256 12.3829 96.9681 12.1275C96.9681 11.9573 96.9681 11.8297 96.8832 11.702C96.7558 11.4892 96.4586 11.3616 95.9916 11.319C95.2274 11.2339 93.9962 11.3616 92.7225 11.4892L92.298 11.5318C91.5338 11.6169 89.7931 11.7871 88.7317 11.6595C88.3072 11.6169 87.8402 11.4892 87.8826 11.2339C87.8826 11.2339 87.8826 11.2339 87.8826 11.1914C87.8826 11.1488 87.8826 11.1488 87.8826 11.1488C88.4345 9.57435 92.9773 6.29775 94.2934 5.5318C97.987 3.40414 101.044 2.34031 102.997 2.59562C104.101 2.72328 104.865 3.27648 105.247 4.17009C105.374 4.55307 105.459 5.06371 105.374 5.5318C105.374 5.65945 105.332 5.74456 105.332 5.87222V5.91477C105.035 7.23392 104.058 8.59562 102.657 9.78711C102.615 9.74456 102.615 9.70201 102.572 9.65946C102.53 9.6169 102.445 9.57435 102.402 9.57435C102.275 9.57435 102.148 9.6169 102.063 9.70201L102.02 9.74456C101.893 9.91477 101.638 10.3403 101.468 10.5956L101.426 10.6382C101.383 10.7233 101.341 10.8084 101.341 10.8509V10.9361C101.299 11.319 101.468 11.3616 101.553 11.3616C101.638 11.3616 101.766 11.319 101.893 11.2765C101.978 11.2339 102.105 11.1063 102.19 11.0212C104.228 9.6169 105.629 7.78711 106.054 6.04243C106.096 5.87222 106.138 5.70201 106.138 5.57435C106.223 4.93605 106.138 4.34031 105.969 3.82967C105.714 3.14882 105.247 2.59562 104.653 2.21265C104.143 1.91477 103.549 1.70201 102.869 1.6169C101.766 1.48924 100.492 1.65945 99.0484 2.08499C97.3502 2.59563 94.5481 4.08499 92.0433 5.74456C89.6658 7.31903 87.9251 8.85094 87.076 10.085C86.8212 10.468 86.6939 10.7658 86.6514 11.0637C86.609 11.4041 86.7363 11.7446 87.0335 11.9573C87.076 11.9999 87.1184 12.0424 87.1609 12.0424L87.2033 12.085C87.4581 12.2126 87.7977 12.3403 88.2223 12.3829C89.411 12.5105 91.1517 12.3403 92.6801 12.1701C93.9537 12.0424 95.3548 11.8722 96.0341 11.9573C96.2039 11.9573 96.2888 11.9999 96.2888 12.0424C96.2888 12.085 96.2463 12.1701 96.119 12.2552C96.0765 12.2552 96.0765 12.2978 96.0341 12.2978C95.7793 12.5105 95.5246 12.7233 95.2699 12.9361L95.2274 12.9786C87.5005 18.6807 82.788 24.1275 81.9813 28.3829C81.9389 28.5531 81.9389 28.7233 81.8964 28.8935C81.6841 30.5531 82.1511 31.9573 83.1701 32.9786C83.8069 33.5744 84.6136 34.0424 85.59 34.3403H85.6325C86.0995 34.468 86.5241 34.5531 86.9486 34.5956C87.2882 34.6382 87.5854 34.6382 87.9251 34.6807H87.9675C88.0524 34.6807 88.1374 34.6807 88.2647 34.6807C90.9394 34.6807 94.1236 33.7871 97.2228 32.1701C100.916 30.2552 104.525 27.319 107.667 23.7446C107.879 23.4892 108.176 23.1488 108.516 22.7658C109.577 21.5743 110.681 20.2978 111.615 19.1488C111.573 19.5743 111.53 19.9999 111.488 20.5105C111.403 21.5743 111.318 22.8084 111.318 24.2126V24.2552C111.318 24.6382 111.488 24.7658 111.658 24.7658C111.743 24.7658 111.912 24.7233 112.082 24.468C112.125 24.4254 112.167 24.3403 112.21 24.2126C112.379 23.8297 112.719 23.0212 113.016 22.0424C114.502 17.0212 115.776 16.4254 116.667 16.4254C117.134 16.4254 117.559 16.5956 118.026 16.8084L118.153 16.8509C118.62 17.0637 119.087 17.2339 119.554 17.2339C119.852 17.2339 120.149 17.1488 120.403 16.9786C120.531 16.8935 120.573 16.7658 120.573 16.5956C120.573 16.5956 120.573 16.5105 120.531 16.468Z" fill="#BCECE3"/>
<path d="M126.814 15.4893C126.984 15.4893 127.069 15.4042 127.154 15.3191C127.154 15.3191 127.196 15.3191 127.196 15.2765H127.239V15.1914C127.324 15.1063 127.366 14.9786 127.366 14.8935C127.366 14.8084 127.324 14.7233 127.281 14.6382L127.239 14.5957C127.196 14.5105 127.154 14.468 127.069 14.3829C126.984 14.3403 126.942 14.3403 126.857 14.3403C126.729 14.3403 126.602 14.4254 126.517 14.5105C126.39 14.6808 126.39 14.8084 126.39 15.0212V15.0637C126.432 15.3191 126.602 15.4893 126.814 15.4893Z" fill="#BCECE3"/>
<path d="M157 18.7658V18.7232C156.915 18.553 156.745 18.4679 156.618 18.4679C156.575 18.4679 156.533 18.4679 156.491 18.5105C155.047 19.0637 153.646 19.8296 152.457 20.7232C152.16 20.3828 151.693 19.9573 151.226 19.5318C150.547 18.8935 149.825 18.2126 149.57 17.8296C149.443 17.6594 149.401 17.4041 149.401 17.1488C149.401 16.085 150.547 14.8084 151.269 14.8084H151.311C151.353 14.8084 151.353 14.8084 151.396 14.8084C152.118 14.936 152.67 14.8084 152.967 14.5105C153.094 14.3828 153.179 14.1701 153.179 13.9573C153.179 13.7445 153.094 13.5743 152.967 13.4467C152.839 13.319 152.67 13.2339 152.415 13.2339C151.396 13.2339 149.613 14.5105 149.231 14.8935C149.018 15.0637 148.849 15.319 148.679 15.5318L148.636 15.5743C148.424 15.8722 148.297 16.1701 148.169 16.4254C147.745 17.4467 145.919 19.7871 145.155 20.553C144.476 21.1913 143.457 21.9573 142.777 21.9573C142.438 21.9573 142.226 21.7445 142.098 21.3615C142.013 21.1488 142.013 20.936 142.013 20.6807C142.013 20.5105 142.013 20.2977 142.056 20.1275C142.098 19.9573 142.098 19.8296 142.141 19.6594C142.395 19.6594 142.65 19.5743 142.947 19.4467C143.457 19.2339 143.924 18.8935 144.136 18.6807C144.433 18.3828 144.561 18.0424 144.561 17.6594C144.561 16.9786 144.009 16.4679 143.287 16.4679C142.523 16.4679 141.759 17.0637 141.207 18.1275C141.079 18.3403 140.994 18.5956 140.952 18.8509C140.273 19.3615 139.593 19.9147 138.872 20.4254C138.787 19.1062 138.532 17.5743 137.683 17.319C137.513 17.2764 137.301 17.2339 137.131 17.319H137.088C137.088 17.319 137.046 17.319 137.046 17.3615C136.409 17.6169 135.857 18.5105 135.305 19.4467C135.136 19.7445 134.966 19.9998 134.881 20.1275C133.65 21.7871 132.843 22.2552 132.418 22.3403H132.291C132.079 22.3403 131.994 22.2552 131.866 21.9998C131.739 21.7445 131.697 21.4892 131.697 21.1488C131.697 20.1275 132.164 18.7232 132.503 18.1275C132.588 17.9998 132.588 17.8722 132.588 17.7445C132.588 17.6169 132.546 17.4892 132.503 17.4041C132.461 17.319 132.418 17.2339 132.333 17.1913C132.249 17.1062 132.121 17.0637 131.994 17.0637C131.782 17.0637 131.569 17.1913 131.442 17.4467L131.399 17.5743C131.187 17.9998 131.017 18.4679 130.932 18.8935C129.489 20.2552 127.791 21.7871 126.772 22.085H126.729C126.432 22.085 126.347 21.5743 126.347 21.1488V21.0637C126.347 20.1701 126.602 18.936 126.772 18.1701L126.814 18.0424V17.9573C126.814 17.6594 126.517 17.4467 126.22 17.4467C126.135 17.4467 126.05 17.4892 125.965 17.5318C125.88 17.5743 125.838 17.6594 125.795 17.7445V17.7871C125.71 18.1701 125.625 18.5105 125.541 18.8509C123.97 21.1062 122.951 21.7445 122.399 21.8296C122.356 21.8296 122.356 21.8296 122.314 21.8296C122.272 21.8296 122.229 21.8296 122.187 21.8296H122.144C121.974 21.702 121.847 21.3615 121.805 20.8935C121.805 20.8509 121.805 20.8084 121.805 20.7232C121.805 20.6807 121.805 20.5956 121.805 20.553C121.805 20.1275 121.889 19.6594 121.974 19.1488C122.144 18.5105 122.356 17.9147 122.654 17.4892C122.823 17.1913 123.036 16.9786 123.248 16.8509C123.29 16.936 123.375 16.9786 123.503 17.0211C123.588 17.0637 123.673 17.0637 123.757 17.0637H123.842C124.182 17.0211 124.394 16.7658 124.479 16.4254V16.3828C124.479 16.1701 124.352 15.8722 124.14 15.8296C123.97 15.7871 123.8 15.7871 123.63 15.7871C122.569 15.7871 121.677 16.4679 121.125 17.702C120.786 18.4254 120.573 19.3615 120.573 20.2126C120.573 20.5105 120.573 20.7658 120.616 21.0211C120.828 22.1701 121.38 22.8084 122.229 22.8084C122.314 22.8084 122.399 22.8084 122.484 22.8084C123.29 22.6807 124.224 21.9573 125.243 20.7232C125.243 20.936 125.201 21.1488 125.201 21.3615C125.201 22.553 125.583 23.1488 126.347 23.1488C126.517 23.1488 126.729 23.1062 126.942 23.0637C127.961 22.7658 129.362 21.5743 130.678 20.3828C130.678 20.553 130.635 20.7232 130.635 20.8935C130.635 21.2764 130.678 21.6169 130.72 21.8722C130.848 22.3403 131.017 22.7233 131.315 22.936C131.569 23.1488 131.866 23.2764 132.206 23.2764L132.461 23.2339C133.055 23.1062 134.074 22.5956 135.433 20.7232C135.603 20.5105 135.772 20.2126 135.942 19.9573C136.154 19.5743 136.494 19.0637 136.749 18.6807C137.004 18.3403 137.131 18.3403 137.173 18.3403C137.343 18.3403 137.428 18.936 137.471 19.319C137.555 19.8722 137.598 20.5956 137.598 21.4892C137.216 21.7871 136.876 22.085 136.537 22.3403C135.56 23.1488 134.711 23.8296 133.777 24.7232C132.503 25.9147 131.102 27.3616 130.126 29.0637C129.446 30.2552 129.107 31.4467 129.107 32.5956C129.107 33.3615 129.277 34.1275 129.574 34.8509C129.829 35.4892 130.253 35.9998 130.72 36.3828C131.187 36.7233 131.739 36.936 132.291 36.936H132.376C135.305 36.8509 137.004 32.1701 137.768 29.4041C138.15 27.9573 138.447 26.4254 138.617 25.0637C138.787 23.8296 138.872 22.6381 138.872 21.5743C139.466 21.1062 140.103 20.6381 140.74 20.1275C140.74 20.1701 140.74 20.2126 140.74 20.2126C140.74 20.3828 140.74 20.5105 140.782 20.6807C140.909 21.9147 141.504 22.7233 142.353 22.8509C142.48 22.8935 142.608 22.8935 142.735 22.8935C143.924 22.8935 144.985 21.9573 145.707 21.2764C146.726 20.2552 147.617 18.9786 148.127 18.2126C148.127 18.2552 148.169 18.2552 148.169 18.2977C148.424 18.8935 149.146 19.4892 149.91 20.1275C150.504 20.5956 151.099 21.0637 151.523 21.5743C150.207 22.7658 149.188 24.1275 148.424 25.702C147.363 27.8296 146.811 29.5318 146.811 30.7658C146.811 31.6169 147.065 32.1701 147.532 32.4254C147.787 32.5956 148.084 32.6807 148.424 32.6807C150.844 32.6807 154.071 28.936 154.071 25.1062C154.071 23.7871 153.689 22.553 152.924 21.4467C154.071 20.553 155.387 19.8296 156.745 19.3615C156.915 19.319 157 19.1488 157 18.9786C157 18.8084 157 18.8084 157 18.7658ZM149.698 31.1062C149.443 31.2764 149.146 31.4467 148.849 31.5743C148.806 31.5743 148.764 31.6169 148.721 31.6169C148.679 31.6169 148.679 31.6169 148.636 31.6594C148.594 31.6594 148.594 31.6594 148.594 31.702C148.297 31.7871 148.084 31.7445 147.915 31.6594C147.66 31.5318 147.532 31.1913 147.532 30.7233C147.532 30.0424 147.787 28.6381 149.103 26.0424C149.825 24.5956 150.802 23.319 151.99 22.2126C152.585 23.1913 152.882 24.2126 152.882 25.319C152.882 26.4254 152.585 27.5743 151.948 28.6381C151.353 29.6169 150.547 30.5105 149.698 31.1062ZM142.353 18.8084C142.565 18.2552 142.82 17.8296 143.16 17.6594H143.202C143.287 17.6169 143.457 17.5743 143.542 17.5743C143.669 17.5743 143.754 17.6169 143.796 17.702V17.7445C143.796 17.7871 143.796 17.9147 143.584 18.1275C143.457 18.2552 143.117 18.553 142.693 18.7232C142.523 18.7232 142.438 18.7658 142.353 18.8084ZM137.64 22.4679C137.64 22.7232 137.598 23.0211 137.598 23.319C137.471 25.1062 137.173 26.936 136.749 28.6381C136.07 31.3616 134.414 35.9998 132.333 35.9998C131.994 35.9998 131.612 35.8722 131.23 35.5743C130.89 35.319 130.593 34.936 130.381 34.4254C130.126 33.7871 129.998 33.1488 129.998 32.5105C129.998 31.5318 130.296 30.5105 130.932 29.4041C131.782 27.8296 133.183 26.4254 134.414 25.2764C135.263 24.4679 136.367 23.4892 137.64 22.4679Z" fill="#BCECE3"/>
<path d="M28.997 29.1489C28.9121 29.0213 28.7423 28.9787 28.6149 28.9787C28.4026 29.0638 28.2753 29.0638 28.2328 29.0638C28.1479 29.0638 28.1055 28.9362 28.063 28.7234C27.9356 28.383 27.8507 28.1277 27.8083 27.9574C27.5535 27.1064 27.3837 26.0426 27.2563 24.8085C27.1714 23.7447 27.0865 22.6809 27.0865 21.7021C27.0865 20.383 27.129 19.1064 27.2563 17.7872C27.3413 16.9787 27.3837 16.383 27.4686 15.9149C27.6809 14.1277 27.8507 12.6809 27.9781 11.617C28.3177 9.3617 28.53 7.48936 28.6998 6.08511C28.7847 5.53192 28.8272 4.76596 28.9121 3.65957L28.997 2.46809C29.0395 2.21277 29.0395 1.91489 28.9546 1.61702C28.8697 1.3617 28.8697 1.14894 28.8697 1.02128L28.6998 0.510638C28.5725 0.212766 28.3177 0.0425532 27.8932 0C27.5111 0 27.2139 0.12766 27.0016 0.340426L26.3648 1.06383C25.728 1.87234 25.0487 2.93617 24.2845 4.25532C23.0533 6.42553 21.9494 8.7234 20.973 11.1489L18.553 17.5745C18.5105 17.6596 18.4681 17.7447 18.4256 17.9149C18.3832 18.0851 18.2983 18.2128 18.1709 18.383V18.0426L18.3832 11.6596C18.4681 10.2128 18.4681 9.14894 18.4256 8.46809C18.3407 7.70213 18.2558 7.14894 18.1709 6.80851C18.0435 6.25532 17.7463 6 17.2793 6C17.1095 6 16.9821 6 16.8972 6.04255C16.6425 6.08511 16.4302 6.21277 16.1755 6.42553C15.8358 6.89362 15.6236 7.23404 15.5387 7.48936C15.0292 8.34043 14.6471 9.2766 14.3499 10.2979C13.0338 13.7872 11.93 17.8298 11.0384 22.5532L9.42509 31.0213L9.17035 32.1277C9.08544 32.4255 8.95808 32.7234 8.87317 33.0213C8.49107 34.2128 7.04758 35.4468 7.81178 30.766C7.93915 30 8.02406 29.4468 8.19388 28.5957C9.80718 20 13.5008 13.0638 13.2461 7.14894C13.1187 4 10.8261 2.21277 9.00053 1.78723C8.7458 1.74468 8.57598 2.25532 8.78826 2.38298C10.5714 3.57447 13.5433 5.02128 11.8026 11.7021C11.0808 14.4255 8.32125 22.6809 6.96267 29.2766C6.66549 30.6809 6.3683 32.383 6.53812 33.8298C6.7504 35.617 7.17495 35.8298 7.81178 35.9574C8.23633 36.0426 8.87317 35.9574 9.25526 35.234C9.25526 35.1915 9.42509 34.8936 9.46754 34.8936C9.59491 34.5957 9.63736 34.5532 9.80718 34.1277V34.0851C9.8921 33.7021 10.0195 33.1489 10.1468 32.4255L11.93 22.0851C12.4819 18.7234 13.2461 15.5745 14.2225 12.6383C14.732 10.9362 15.3264 9.44681 15.9632 8.12766C16.2179 7.57447 16.4727 7.14894 16.7699 6.80851C16.8548 6.68085 16.9397 6.6383 17.0671 6.6383C17.152 6.80851 17.1944 6.97872 17.2369 7.23404C17.2793 7.44681 17.2793 7.61702 17.2793 7.70213C17.2793 8.93617 17.2369 9.87234 17.1944 10.4681C17.1095 11.1489 17.0671 12.2128 16.9821 13.5319C16.8972 14.2553 16.8548 15.3191 16.7699 16.8085C16.685 17.4043 16.685 17.8298 16.685 18.1277L16.7274 19.0213C16.7274 19.2766 16.7699 19.617 16.8123 20.0851C16.8972 20.3404 17.0246 20.5532 17.1944 20.6383C17.2793 20.7234 17.4492 20.7234 17.7039 20.7234C18.1284 20.7234 18.4681 20.5532 18.6379 20.2553C18.7228 20.1702 18.8077 19.9574 18.9775 19.617C19.1474 19.0638 19.3172 18.5957 19.487 18.2128C19.954 16.7234 20.421 15.1915 20.9305 13.7021C22.0343 10.4681 23.308 7.48936 24.7939 4.76596C25.3034 3.74468 25.9402 2.7234 26.7469 1.65957C26.7893 1.61702 27.0016 1.3617 27.4262 0.808511C27.4686 0.765957 27.5111 0.765957 27.6384 0.765957C27.7234 0.765957 27.7234 0.851064 27.7234 0.978723L27.7658 1.82979C27.7658 2.08511 27.7234 2.51064 27.6809 3.02128C27.6384 3.2766 27.4262 4.7234 27.0865 7.48936L26.7893 9.53191C26.4497 11.5319 26.2374 13.0638 26.0676 14.0426C25.8978 15.234 25.7704 16.9362 25.6006 19.1915C25.5157 20.2553 25.5157 21.0638 25.5157 21.5319C25.5157 22.5957 25.5581 23.7021 25.6855 24.8085C25.8129 26.0426 26.0251 27.0638 26.2799 27.8298C26.5771 28.6809 26.9167 29.4043 27.2139 30C27.4262 30.383 27.8083 30.5532 28.3177 30.5532C28.7847 30.5106 29.0395 30.2553 29.0819 29.7872C29.1668 29.5745 29.1244 29.3617 28.997 29.1489Z" fill="#BCECE3"/>
<path d="M8.95809 3.44679C8.95809 3.44679 6.6655 6.08509 4.03327 5.61701C3.05679 5.44679 2.03786 5.31914 1.01893 5.44679C0.7642 5.48935 0.551923 5.48935 0.382102 5.5319C0.127369 5.57445 -0.0849074 5.31914 3.34904e-06 5.06382C0.806656 3.31913 5.17956 -0.765972 10.5289 2.46807L9.97702 3.19148C9.97702 3.19148 6.32586 0.638283 3.09925 3.36169C4.37291 2.8085 6.83532 1.78722 8.95809 3.44679Z" fill="#BCECE3"/>
</svg>
