<svg width="101" height="45" viewBox="0 0 101 45" fill="none" xmlns="http://www.w3.org/2000/svg">
<path d="M55.7463 18.6522C55.3544 18.3321 54.9714 17.9906 54.5984 17.6276C53.234 16.2993 52.0233 14.7124 51.0022 12.9085L51.0021 12.9085C49.8181 10.8168 49.1161 8.50628 48.4209 6.21097L48.4158 6.19412C47.8605 4.36082 47.274 2.4247 46.4225 0.613971L46.4225 0.613865C46.4024 0.571211 46.4092 0.545226 46.4225 0.524173L46.4225 0.524171C46.4292 0.513721 46.4372 0.506595 46.4437 0.502571C46.4457 0.503878 46.4483 0.505644 46.4512 0.508001L46.4513 0.508031C48.4758 2.11154 50.9135 2.99782 52.7655 3.58172L55.7463 18.6522ZM55.7463 18.6522C57.6093 16.8865 59.7213 15.4801 61.9873 14.4994C60.1237 12.8901 58.0922 11.4942 56.2512 10.2803L56.725 9.40398C58.8814 10.3366 60.9636 11.6465 63.0463 12.9963L62.7744 13.4159L63.0463 12.9963C63.4041 13.2282 63.7497 13.472 64.085 13.7265C65.3993 13.3186 66.723 13.0008 68.0478 12.7466C66.8052 10.4895 65.1013 8.68417 63.1248 7.51035C60.4616 5.92915 57.5208 5.03338 54.611 4.14946L54.6081 4.14858C54.0059 3.96566 53.3803 3.77561 52.7656 3.58174L55.7463 18.6522ZM63.8377 13.8039L63.8387 13.8036L63.9886 14.2781M63.8377 13.8039L63.9886 14.2781M63.8377 13.8039L63.8354 13.8047L63.986 14.2815L63.9886 14.2781M63.8377 13.8039L64.0388 14.2139L64.0131 14.2469L64.0129 14.247L63.9886 14.2781M63.8334 13.8053C63.8327 13.8056 63.8334 13.8053 63.8345 13.805L63.8334 13.8053Z" fill="#6FCF97" stroke="#6FCF97"/>
<path d="M69.5104 15.0088L69.5094 15.009L69.4802 15.0138C69.4799 15.0138 69.4797 15.0139 69.4794 15.0139C69.4646 15.0164 69.4626 15.0167 69.4613 15.0169C69.4603 15.017 69.4597 15.0171 69.4536 15.0181L69.4505 15.0187C68.1281 15.2426 66.8178 15.5247 65.5218 15.8933L65.5208 15.8936C65.5156 15.895 65.5146 15.8954 65.5127 15.8959C65.5105 15.8966 65.5072 15.8976 65.494 15.9015L65.4911 15.9023L65.4797 15.9056L65.4593 15.9116C65.1694 15.9947 64.881 16.0813 64.5939 16.173L69.5104 15.0088ZM69.5104 15.0088C72.1756 14.5612 74.8672 14.3502 77.593 14.1365C78.5173 14.0641 79.4454 13.9913 80.3778 13.9089L80.3338 13.4108L80.3778 13.9089C83.5863 13.6253 87.0568 13.0788 90.1 11.6436L89.8867 11.1913M69.5104 15.0088L89.8867 11.1913M89.8867 11.1913L90.1 11.6436C90.1372 11.626 90.1655 11.6218 90.1857 11.6218C90.2392 11.6218 90.308 11.6568 90.3482 11.733C90.3663 11.7674 90.3728 11.8012 90.3709 11.8304C90.3692 11.8568 90.3602 11.892 90.3269 11.935C88.6556 14.0958 87.3492 16.4636 86.0642 18.7925C85.9116 19.0691 85.7593 19.3451 85.6067 19.6202C84.1617 22.2253 82.6869 24.7557 80.6754 26.9696L81.0455 27.3059M89.8867 11.1913L81.0455 27.3059M64.0845 15.8153L64.2475 16.288L64.2359 16.2921L64.2162 16.299C61.648 17.1846 59.349 18.6477 57.4029 20.5077L57.4028 20.5078L57.3812 20.5287L57.3806 20.5292L57.3709 20.5386L57.3607 20.5485L57.3599 20.5492C54.4358 23.3602 52.3203 27.0618 51.302 31.0143M64.0845 15.8153L51.302 31.0143M64.0845 15.8153L64.2475 16.288C64.276 16.2782 64.2702 16.2801 64.266 16.2815C64.2626 16.2826 64.2601 16.2834 64.2769 16.2777M64.0845 15.8153L64.2769 16.2777M51.302 31.0143C51.2832 31.0874 51.3014 31.1395 51.3355 31.1801M51.302 31.0143L51.3355 31.1801M51.6056 31.2101L51.6057 31.21C55.206 28.2516 58.9344 25.3063 63.4593 23.668C64.2078 23.397 64.9663 23.1244 65.732 22.858L65.7326 22.8577L65.7761 22.8426L65.7785 22.8418L65.8249 22.8257C66.7268 22.5126 67.6398 22.2081 68.5603 21.9243L68.5626 21.9236L68.5727 21.9205L68.5855 21.9166L68.588 21.9158L68.6195 21.9062C70.4726 21.3369 72.3606 20.8513 74.2573 20.5516L74.5077 21.5148C72.7307 22.1674 70.9647 22.8347 69.2311 23.5579L69.2296 23.5585L69.2009 23.5704L69.1988 23.5712L69.1758 23.5809L69.1753 23.581C68.6173 23.8143 68.0627 24.0545 67.5115 24.301C67.5114 24.301 67.5113 24.3011 67.5112 24.3011C67.5112 24.3011 67.5111 24.3011 67.5111 24.3011L67.4748 24.3174L67.4743 24.3176L67.4414 24.3323L67.4403 24.3328C66.2966 24.8461 65.1721 25.3896 64.0745 25.9766C61.5674 27.3174 59.1996 28.8811 57.0535 30.81C53.2902 34.1926 50.2184 38.649 49.0566 43.5694L48.57 43.4546L49.0566 43.5695C48.9925 43.8413 49.1408 44.0818 49.3679 44.1443C49.4022 44.1537 49.439 44.1587 49.4775 44.1587C49.6999 44.1587 49.882 44.009 49.9205 43.8463L49.9205 43.8462C50.5277 41.2743 51.6124 38.881 53.1193 36.7612L53.226 36.6112L53.4044 36.5662C53.4784 36.5475 53.553 36.5275 53.6307 36.5046L51.6056 31.2101ZM51.6056 31.2101C51.5819 31.2295 51.5609 31.2403 51.5435 31.2465C51.5259 31.2528 51.5083 31.2557 51.4905 31.2557C51.437 31.2557 51.3762 31.2287 51.3355 31.1801M51.6056 31.2101L51.3355 31.1801M81.0455 27.3059L80.6754 26.9696C76.9545 31.0651 72.1408 34.1572 66.7018 35.203L81.0455 27.3059ZM64.2769 16.2777C64.3823 16.2418 64.488 16.2068 64.5939 16.173L64.2769 16.2777Z" fill="#6FCF97" stroke="#6FCF97"/>
<line x1="1" y1="41" x2="44" y2="41" stroke="#6FCF97" stroke-width="2" stroke-linecap="round"/>
<line x1="57" y1="41" x2="100" y2="41" stroke="#6FCF97" stroke-width="2" stroke-linecap="round"/>
</svg>
