<svg width="60" height="60" viewBox="0 0 60 60" fill="none" xmlns="http://www.w3.org/2000/svg">
<path d="M52.6182 29.9847C52.6182 42.4911 42.4911 52.6182 29.9847 52.6182C17.4784 52.6182 7.35129 42.4911 7.35129 29.9847C7.35129 17.4784 17.4784 7.35129 29.9847 7.35129C42.4911 7.35129 52.6182 17.5089 52.6182 29.9847Z" fill="#006C53"/>
<path d="M29.9848 60C13.452 60 0 46.548 0 29.9848C0 13.452 13.452 0 29.9848 0C46.5175 0 59.9695 13.452 59.9695 29.9848C60 46.548 46.548 60 29.9848 60ZM29.9848 0.244026C13.574 0.244026 0.244026 13.574 0.244026 29.9848C0.244026 46.3955 13.6045 59.756 30.0153 59.756C46.426 59.756 59.7865 46.3955 59.7865 29.9848C59.756 13.574 46.426 0.244026 29.9848 0.244026Z" fill="#006C53"/>
<path d="M4.11793 21.2913L6.37517 23.213L6.34467 23.274L3.50786 23.6706L5.33806 24.2196C5.58209 24.2806 5.73461 24.3111 5.82612 24.2806C5.91763 24.2501 5.97863 24.1586 6.03964 23.9756L6.13115 24.0061L5.82612 25.0737L5.73461 25.0432C5.76511 24.8602 5.76511 24.7077 5.7041 24.6467C5.6431 24.5857 5.49058 24.4941 5.27706 24.4331L3.44686 23.8841C3.29434 23.8231 3.17233 23.8231 3.11132 23.8536C3.05031 23.8841 2.98931 24.0061 2.9283 24.1891L2.83679 24.1586L3.11132 23.274L5.7041 22.908L3.69088 21.2303L3.96541 20.3152L4.05692 20.3457C4.02642 20.5287 4.02642 20.6507 4.05692 20.7117C4.08743 20.7727 4.17894 20.8337 4.36196 20.8642L6.37517 21.4438C6.52769 21.5048 6.6497 21.5048 6.71071 21.4743C6.77172 21.4438 6.83272 21.3523 6.89373 21.1693L6.98524 21.1998L6.6192 22.4809L6.52769 22.4504C6.55819 22.2674 6.55819 22.1454 6.52769 22.0844C6.49719 22.0234 6.37517 21.9624 6.19216 21.9014L4.11793 21.2913Z" fill="#006C53"/>
<path d="M8.08336 18.0885C8.17487 18.119 8.23588 18.1495 8.26638 18.119C8.29689 18.0885 8.38839 17.9664 8.51041 17.7834L8.57141 17.6614C8.72393 17.3564 8.81544 17.1428 8.81544 16.9598C8.81544 16.8073 8.72393 16.5938 8.57141 16.3803L8.63242 16.2583L9.21198 16.8378L7.93085 19.0646L7.83934 19.0341C7.90034 18.8815 7.93085 18.7595 7.93085 18.6985C7.90034 18.6375 7.83934 18.546 7.68682 18.4545L5.85662 17.4174C5.7041 17.3259 5.61259 17.2954 5.52108 17.3259C5.46008 17.3564 5.36857 17.4174 5.27706 17.5699L5.18555 17.5394L6.43618 15.3737L7.01575 15.7092V15.7397C6.80222 15.6787 6.64971 15.6482 6.5582 15.7092C6.46669 15.7397 6.34467 15.8922 6.22266 16.1362L5.91763 16.6853C5.88712 16.7463 5.88712 16.7768 5.88712 16.8073C5.88712 16.8378 5.91763 16.8683 5.97863 16.8988L6.89373 17.4174L7.25977 16.7768C7.35128 16.5938 7.41229 16.4718 7.38179 16.3803C7.35128 16.2888 7.29028 16.1972 7.13776 16.1057L7.19877 16.0142L8.14437 16.5633L8.08336 16.6548C7.90034 16.5938 7.77833 16.5633 7.68682 16.5938C7.62581 16.6243 7.5343 16.7158 7.41229 16.8988L7.04625 17.5394L8.08336 18.0885Z" fill="#006C53"/>
<path d="M9.94409 13.0249L10.9202 11.9573L10.2491 11.3472C10.1271 11.2252 10.0356 11.1642 9.94409 11.1642C9.88308 11.1642 9.76107 11.2252 9.63905 11.3472L9.57805 11.2862L10.4626 10.3101L10.5236 10.3711C10.4016 10.5236 10.3711 10.6152 10.3711 10.7067C10.3711 10.7677 10.4321 10.8592 10.5542 10.9812L12.1098 12.3843C12.2318 12.5064 12.3233 12.5369 12.4149 12.5369C12.4759 12.5369 12.5979 12.4759 12.7199 12.3538L12.7809 12.4148L11.8658 13.4215L11.8048 13.3604C11.9268 13.2079 11.9573 13.1164 11.9573 13.0249C11.9573 12.9639 11.8658 12.8419 11.7133 12.7199L11.0422 12.1098L10.0661 13.1774L10.7982 13.818C10.9202 13.94 11.0117 13.9705 11.1032 13.9705C11.1642 13.9705 11.2862 13.9095 11.4082 13.7875L11.4693 13.8485L10.5847 14.8246L10.5236 14.7636C10.6457 14.6111 10.6762 14.5196 10.6762 14.4281C10.6762 14.3671 10.5847 14.245 10.4321 14.123L8.90697 12.7504C8.78496 12.6284 8.69345 12.5674 8.60194 12.5674C8.54093 12.5674 8.41892 12.6284 8.29691 12.7504L8.2359 12.6894L9.1205 11.7133L9.1815 11.7743C9.05949 11.9268 9.02899 12.0183 9.02899 12.1098C9.02899 12.1708 9.08999 12.2623 9.21201 12.3843L9.94409 13.0249Z" fill="#006C53"/>
<path d="M13.7265 7.80884L13.513 7.96136C13.2994 8.11388 13.1774 8.23589 13.1469 8.3579C13.1164 8.47992 13.1469 8.63243 13.2689 8.87646L13.1774 8.93746L12.7199 8.26639L14.8856 6.71072L15.3737 7.35129L15.2822 7.4123C15.0991 7.22928 14.9161 7.13777 14.8246 7.13777C14.7026 7.13777 14.5501 7.19878 14.3366 7.35129L14.123 7.50381L15.5262 9.45602C15.6177 9.60854 15.7092 9.66954 15.8007 9.66954C15.8617 9.66954 15.9837 9.63904 16.1668 9.51703L16.2278 9.57803L15.0991 10.3711H15.0381C15.1906 10.2491 15.2822 10.1576 15.2822 10.0661C15.2822 10.0051 15.2517 9.88307 15.1296 9.70005L13.7265 7.80884Z" fill="#006C53"/>
<path d="M21.3218 6.86326L21.3523 6.95477L20.2542 7.44282L20.2237 7.35131C20.3457 7.29031 20.4067 7.2598 20.4372 7.1988C20.4677 7.16829 20.4677 7.10729 20.4372 7.04628C20.4067 6.98527 20.3457 6.89376 20.2237 6.80225L19.8576 6.46672L18.729 6.98527L18.7595 7.56484C18.7595 7.62584 18.79 7.68685 18.79 7.74786C18.851 7.86987 18.973 7.86987 19.1561 7.77836L19.1866 7.86987L18.3325 8.26641L18.302 8.1749C18.3935 8.1139 18.4545 8.05289 18.485 7.93088C18.5155 7.83937 18.5155 7.59534 18.5155 7.2293L18.4545 4.69753L18.546 4.66702L20.7117 6.61923C20.8643 6.74125 20.9558 6.83276 21.0168 6.83276C21.1388 6.89376 21.1998 6.89376 21.3218 6.86326ZM18.729 6.80225L19.7356 6.3447L18.6985 5.3991L18.729 6.80225Z" fill="#006C53"/>
<path d="M25.5618 3.50788C25.5923 3.59939 25.5923 3.6604 25.5923 3.75191C25.5923 3.84342 25.5618 3.90442 25.5313 3.99593C25.5008 4.08744 25.4398 4.17895 25.3482 4.27046C25.2567 4.36197 25.1652 4.42298 25.0127 4.51449C24.8602 4.57549 24.7077 4.6365 24.4941 4.69751C24.4026 4.72801 24.2806 4.72801 24.1586 4.75851L24.3416 5.61261C24.3721 5.79563 24.4331 5.88714 24.4941 5.91764C24.5552 5.94814 24.6772 5.94814 24.8602 5.91764L24.8907 6.00915L23.6096 6.28368L23.579 6.19217C23.7621 6.13116 23.8536 6.07016 23.8841 6.00915C23.9146 5.94814 23.9146 5.82613 23.8536 5.64311L23.4265 3.62989C23.396 3.47738 23.335 3.35536 23.3045 3.32486C23.2435 3.29436 23.1215 3.29436 22.969 3.29436L22.9385 3.20285L24.1586 2.92832C24.3111 2.89781 24.4331 2.89781 24.5552 2.86731C24.6772 2.86731 24.8297 2.86731 24.9822 2.89781C25.1347 2.92832 25.2567 2.98932 25.3482 3.08083C25.4398 3.20285 25.5313 3.32486 25.5618 3.50788ZM23.8841 3.32486L24.1281 4.51449C24.2196 4.51449 24.3111 4.48398 24.4026 4.48398C24.9517 4.36197 25.1652 4.08744 25.0737 3.62989C25.0127 3.38587 24.9212 3.23335 24.7382 3.14184C24.5552 3.05033 24.3111 3.05033 24.0061 3.11134C23.9451 3.11134 23.9146 3.14184 23.8841 3.17234C23.8536 3.23335 23.8536 3.26385 23.8841 3.32486Z" fill="#006C53"/>
<path d="M32.7301 5.18556C32.7301 5.27707 32.7301 5.33808 32.7911 5.36858C32.8521 5.39908 32.9741 5.42959 33.1876 5.46009L33.3096 5.49059C33.6452 5.5211 33.8892 5.5211 34.0417 5.46009C34.1942 5.39908 34.3467 5.24657 34.4992 5.00254L34.6213 5.03304L34.3162 5.79563L31.7845 5.46009V5.36858C31.9675 5.36858 32.059 5.36858 32.12 5.30757C32.181 5.27707 32.2115 5.15506 32.242 5.00254L32.5165 2.92832C32.547 2.7758 32.5165 2.65379 32.486 2.59278C32.4555 2.53177 32.3335 2.50127 32.1505 2.44026V2.34875L34.6518 2.68429L34.5908 3.35536H34.4687C34.4687 3.14184 34.4077 2.98932 34.3467 2.92832C34.2552 2.86731 34.1027 2.8063 33.8282 2.7758L33.1876 2.68429C33.1266 2.68429 33.0961 2.68429 33.0656 2.68429C33.0351 2.71479 33.0351 2.7453 33.0046 2.8063L32.8826 3.84342L33.6146 3.93493C33.8282 3.96543 33.9502 3.93493 34.0112 3.90442C34.0722 3.84342 34.1332 3.75191 34.1942 3.56889H34.3162L34.1637 4.667H34.0417C34.0417 4.48399 34.0112 4.33147 33.9502 4.27046C33.8892 4.20946 33.7672 4.17895 33.5841 4.14845L32.8521 4.05694L32.7301 5.18556Z" fill="#006C53"/>
<path d="M38.9527 3.78241C39.0747 3.81291 39.1967 3.87392 39.3187 3.93493C39.4408 3.99593 39.5323 4.08744 39.6543 4.17895C39.7458 4.27046 39.8373 4.39248 39.8678 4.51449C39.8983 4.6365 39.8983 4.78902 39.8373 4.94153C39.6848 5.33808 39.3493 5.49059 38.8002 5.39908H38.7697L39.2882 6.86324C39.3188 6.95475 39.3798 7.04626 39.4103 7.07677C39.4408 7.13777 39.5323 7.16828 39.5933 7.19878L39.5628 7.29029L38.8307 7.04626L38.2511 5.30757L38.0071 5.21606L37.7021 6.10066C37.6411 6.25318 37.6411 6.37519 37.6716 6.4362C37.7021 6.4972 37.7936 6.55821 37.9766 6.64972L37.9461 6.74123L36.6955 6.31418L36.726 6.22267C36.909 6.28368 37.0005 6.28368 37.0615 6.22267C37.1225 6.19217 37.1835 6.07016 37.2445 5.88714L37.9156 3.96543C37.9766 3.81291 37.9766 3.6909 37.9461 3.62989C37.9156 3.56889 37.8241 3.50788 37.6716 3.41637L37.7021 3.32486L38.9527 3.78241ZM38.0681 5.06355C38.4342 5.18556 38.7087 5.21606 38.9222 5.18556C39.1357 5.15506 39.2577 5.00254 39.3493 4.75852C39.4103 4.54499 39.4103 4.36197 39.3187 4.23996C39.2272 4.08744 39.0442 3.96543 38.7392 3.87392C38.6477 3.84342 38.5867 3.84342 38.5562 3.84342C38.5257 3.84342 38.4952 3.90442 38.4647 3.96543L38.0681 5.06355Z" fill="#006C53"/>
<path d="M42.3386 6.92426C42.5826 6.49722 42.9181 6.25319 43.3452 6.13118C43.7722 6.03967 44.1688 6.10067 44.5653 6.3142C44.7483 6.40571 44.8704 6.52772 45.0229 6.68024C45.1449 6.80225 45.2059 6.89376 45.2364 6.89376C45.3279 6.95477 45.4194 6.92426 45.4804 6.86326L45.5719 6.92426L45.0534 7.86986L44.9619 7.80886C45.1144 7.22929 44.9924 6.80225 44.5653 6.52772C44.2603 6.3447 43.9858 6.3142 43.6807 6.43621C43.3757 6.55822 43.1012 6.80225 42.8876 7.16829C42.7351 7.41231 42.6436 7.62584 42.6131 7.83936C42.5826 8.05288 42.5826 8.2359 42.6131 8.38842C42.6741 8.54094 42.7351 8.66295 42.8266 8.78496C42.9181 8.87647 43.0097 8.96798 43.1317 9.05949C43.4367 9.24251 43.8332 9.30352 44.2908 9.21201L44.3213 9.33402C44.1078 9.42553 43.8637 9.45604 43.6197 9.42553C43.3757 9.39503 43.1317 9.30352 42.9181 9.18151C42.5216 8.93748 42.2776 8.60194 42.1861 8.2054C42.003 7.74785 42.0641 7.35131 42.3386 6.92426Z" fill="#006C53"/>
<path d="M46.4565 11.0727L47.8597 9.51703C47.9817 9.39501 48.0427 9.30351 48.0122 9.212C48.0122 9.15099 47.9207 9.02898 47.7987 8.87646L47.8597 8.81545L48.8968 9.76105L48.8358 9.82206C48.6833 9.70005 48.5613 9.63904 48.5003 9.63904C48.4393 9.63904 48.3172 9.70005 48.2257 9.82206L46.8226 11.3777C46.7006 11.4997 46.6396 11.6218 46.6701 11.6828C46.6701 11.7743 46.7616 11.8658 46.8836 11.9878L46.8226 12.0488L45.7855 11.1032L45.8465 11.0422C45.999 11.1642 46.121 11.2252 46.182 11.2252C46.243 11.2557 46.3345 11.1947 46.4565 11.0727ZM48.9273 8.66293C48.9883 8.69344 48.9883 8.75444 49.0188 8.81545C49.0188 8.87646 48.9883 8.93746 48.9578 8.99847C48.9273 9.05948 48.8663 9.05948 48.8053 9.05948C48.7443 9.05948 48.6833 9.02897 48.6223 8.99847C48.5613 8.96797 48.5613 8.90696 48.5613 8.84596C48.5613 8.78495 48.5918 8.72394 48.6223 8.66293C48.6528 8.63243 48.7138 8.60193 48.7748 8.60193C48.8358 8.60193 48.8968 8.63243 48.9273 8.66293Z" fill="#006C53"/>
<path d="M52.9537 14.4281L52.8927 14.4891C52.8012 14.3976 52.7097 14.3366 52.6182 14.3061C52.4962 14.2756 52.3437 14.2756 52.0691 14.3061L50.788 14.3976L50.0559 14.9466C49.9034 15.0686 49.8424 15.1602 49.8424 15.2212C49.8424 15.2822 49.9034 15.4042 50.0254 15.5872L49.9644 15.6482L49.0798 14.4891L49.1408 14.4281C49.2933 14.5806 49.3848 14.6721 49.4458 14.7026C49.5069 14.7026 49.6289 14.6416 49.8119 14.5196L50.4525 14.0315L50.788 12.9944C50.8795 12.7199 50.9405 12.5369 50.971 12.4149C51.0015 12.2928 51.0015 12.2013 51.0015 12.1403C51.0015 12.0793 50.971 12.0183 50.91 11.9573L50.971 11.8963L51.7641 12.9334L51.7031 12.9944C51.5506 12.8419 51.4591 12.7809 51.3981 12.8114C51.3371 12.8419 51.3065 12.9029 51.276 12.9944L50.8795 14.184L52.1301 14.062C52.2216 14.062 52.2827 14.0315 52.3132 14.001C52.3437 13.9705 52.3742 13.9095 52.3742 13.879C52.3742 13.818 52.3132 13.757 52.2522 13.6655L52.3132 13.6045L52.9537 14.4281Z" fill="#006C53"/>
<path d="M52.3437 18.912C52.2522 18.9426 52.2217 19.0036 52.2217 19.0646C52.2217 19.1256 52.2827 19.2476 52.3742 19.4611L52.4352 19.5831C52.5877 19.8882 52.7097 20.1017 52.8622 20.1932C52.9843 20.2847 53.1978 20.3457 53.4723 20.3457L53.5333 20.4677L52.7097 20.6202L51.6116 18.302L51.7031 18.2715C51.7946 18.424 51.8556 18.5155 51.9471 18.546C52.0081 18.5765 52.1302 18.546 52.2827 18.485L54.1739 17.6004C54.3264 17.5394 54.4179 17.4479 54.4484 17.3869C54.4789 17.3259 54.4484 17.2039 54.3874 17.0513L54.4789 17.0208L55.5465 19.2781L54.9365 19.5831L54.8755 19.4611C55.0585 19.3391 55.15 19.2171 55.15 19.1256C55.1805 19.0341 55.1195 18.851 54.9975 18.607L54.7229 18.0275C54.6924 17.9664 54.6619 17.9359 54.6314 17.9359C54.6009 17.9359 54.5704 17.9359 54.5094 17.9664L53.5638 18.424L53.8688 19.0951C53.9604 19.2781 54.0519 19.3696 54.1129 19.4001C54.2044 19.4306 54.3264 19.4001 54.4789 19.3696L54.5399 19.4611L53.5333 19.9187L53.4723 19.8271C53.6248 19.7051 53.7163 19.6136 53.7468 19.5526C53.7773 19.4611 53.7468 19.3391 53.6553 19.1866L53.3503 18.5155L52.3437 18.912Z" fill="#006C53"/>
<path d="M54.5704 24.4026C54.7229 24.3721 54.8144 24.2806 54.9059 24.1586C54.9975 24.0366 55.0585 23.8841 55.089 23.7316C55.1195 23.579 55.1805 23.396 55.2415 23.2435C55.3025 23.091 55.3635 22.9385 55.4855 22.786C55.577 22.6639 55.7295 22.5724 55.9125 22.5114C56.1566 22.4504 56.3396 22.4809 56.5531 22.6029C56.7361 22.725 56.8582 22.8775 56.9192 23.091C56.9497 23.213 56.9497 23.3655 56.9497 23.518C56.9497 23.6706 56.9192 23.7926 56.9497 23.8231C56.9802 23.9146 57.0412 23.9451 57.1327 23.9451L57.1632 24.0366L56.2176 24.3721L56.1871 24.2501C56.4311 24.0976 56.6141 23.9451 56.7056 23.7621C56.7971 23.579 56.8276 23.396 56.7666 23.213C56.7361 23.0605 56.6751 22.969 56.5531 22.908C56.4616 22.847 56.3396 22.8165 56.2176 22.847C56.0956 22.8775 56.0041 22.969 55.9125 23.091C55.821 23.213 55.76 23.4265 55.6685 23.7011C55.577 24.0366 55.4855 24.3111 55.3635 24.4636C55.2415 24.6467 55.089 24.7382 54.9059 24.7992C54.6619 24.8602 54.4484 24.8297 54.2349 24.6772C54.0213 24.5247 53.8993 24.3416 53.8383 24.0671C53.8078 23.9146 53.7773 23.7621 53.8078 23.579C53.8078 23.396 53.8078 23.3045 53.8078 23.274C53.8078 23.2435 53.7773 23.213 53.7468 23.1825C53.7163 23.152 53.6858 23.152 53.6248 23.1825L53.5943 23.091L54.5399 22.725L54.5704 22.8165C54.3264 22.9995 54.1434 23.1825 54.0518 23.3655C53.9603 23.5485 53.9298 23.7316 53.9908 23.9451C54.0213 24.1281 54.1129 24.2501 54.2349 24.3111C54.2959 24.4331 54.4179 24.4636 54.5704 24.4026Z" fill="#006C53"/>
<path d="M20.4372 54.1129C20.4067 54.1739 20.3762 54.2349 20.3457 54.2654C20.3152 54.3264 20.2542 54.3569 20.1932 54.4179C20.1322 54.4484 20.0712 54.5094 19.9797 54.5094C19.9186 54.5399 19.8271 54.5399 19.7051 54.5399C19.6136 54.5399 19.4916 54.5094 19.3696 54.4484L18.8205 54.2044L18.851 54.1739C18.9425 54.2044 18.973 54.2044 19.0035 54.2044C19.034 54.2044 19.0646 54.1434 19.0951 54.0824L19.4611 53.2283C19.4916 53.1673 19.4916 53.1062 19.4916 53.0757C19.4916 53.0452 19.4306 53.0147 19.3696 52.9842L19.4001 52.9537L19.9186 53.1673C20.0407 53.2283 20.1322 53.2893 20.2237 53.3503C20.3152 53.4113 20.3762 53.4723 20.4067 53.5638C20.4372 53.6248 20.4677 53.6858 20.4982 53.7773C20.4982 53.8383 20.4982 53.9298 20.4982 53.9908C20.4982 53.9908 20.4677 54.0518 20.4372 54.1129ZM20.2237 54.0213C20.2542 53.9603 20.2542 53.8993 20.2847 53.8383C20.2847 53.7773 20.2847 53.7163 20.2847 53.6553C20.2847 53.5943 20.2542 53.5333 20.2237 53.4723C20.1932 53.4113 20.1322 53.3503 20.0712 53.2893C20.0102 53.2283 19.9186 53.1978 19.8271 53.1368C19.7966 53.1062 19.7661 53.1063 19.7356 53.1063C19.7051 53.1063 19.7051 53.1368 19.6746 53.1673L19.2476 54.1739C19.2476 54.2044 19.2476 54.2349 19.2476 54.2349C19.2476 54.2654 19.2781 54.2654 19.3086 54.2959C19.7661 54.5094 20.0712 54.4179 20.2237 54.0213Z" fill="#006C53"/>
<path d="M21.5658 55.028L21.8709 54.1434C21.9014 54.0824 21.9014 54.0214 21.8709 53.9908C21.8709 53.9603 21.8099 53.9298 21.7184 53.8993V53.8688L22.3284 54.0824V54.1129C22.2369 54.0824 22.1759 54.0824 22.1454 54.0824C22.1149 54.0824 22.0844 54.1434 22.0539 54.2044L21.7489 55.089C21.7184 55.15 21.7184 55.211 21.7489 55.2415C21.7794 55.272 21.8099 55.3025 21.9014 55.333V55.3635L21.2913 55.1805V55.15C21.3828 55.1805 21.4438 55.1805 21.4743 55.1805C21.5048 55.15 21.5353 55.089 21.5658 55.028ZM22.1454 53.5943C22.1759 53.5943 22.2064 53.6248 22.2064 53.6553C22.2064 53.6858 22.2369 53.7163 22.2064 53.7468C22.2064 53.7773 22.1759 53.8078 22.1454 53.8078C22.1149 53.8078 22.0844 53.8078 22.0539 53.8078C22.0234 53.8078 21.9929 53.7773 21.9929 53.7468C21.9929 53.7163 21.9929 53.6858 21.9929 53.6553C21.9929 53.6248 22.0234 53.6248 22.0539 53.5943C22.0844 53.5638 22.1149 53.5943 22.1454 53.5943Z" fill="#006C53"/>
<path d="M24.8297 54.6924V54.7229C24.7687 54.7229 24.7382 54.7229 24.6772 54.7534C24.6162 54.7839 24.5552 54.8144 24.4941 54.9059L24.0671 55.3025L23.9756 55.699C23.9451 55.7905 23.9451 55.821 23.9756 55.8515C24.0061 55.8821 24.0366 55.9126 24.1281 55.9431V55.9736L23.4875 55.821V55.7905C23.579 55.821 23.6401 55.821 23.6706 55.7905C23.7011 55.76 23.7316 55.7295 23.7316 55.638L23.8231 55.272L23.6401 54.8144C23.6096 54.6924 23.5485 54.6009 23.5485 54.5704C23.518 54.5094 23.4875 54.4789 23.4875 54.4484C23.457 54.4179 23.4265 54.4179 23.396 54.4179V54.3874L23.9756 54.5399V54.5704C23.8841 54.5399 23.8231 54.5704 23.8231 54.6009C23.8231 54.6314 23.8231 54.6619 23.8231 54.6924L24.0061 55.211L24.4026 54.8144C24.4331 54.7839 24.4331 54.7534 24.4636 54.7534C24.4636 54.7229 24.4636 54.7229 24.4331 54.6924C24.4026 54.6924 24.3721 54.6619 24.3111 54.6619V54.6314L24.8297 54.6924Z" fill="#006C53"/>
<path d="M26.0803 56.1871C26.0803 56.2176 26.0803 56.2481 26.1108 56.2786C26.1413 56.2786 26.2023 56.3091 26.2938 56.3091H26.3549C26.5074 56.3396 26.6294 56.3396 26.6904 56.3091C26.7514 56.2786 26.8429 56.2176 26.9039 56.0956H26.9649L26.8124 56.4311L25.6838 56.2786V56.2481C25.7753 56.2481 25.8058 56.2481 25.8363 56.2176C25.8668 56.1871 25.8668 56.1566 25.8973 56.0651L26.0193 55.1195C26.0193 55.0584 26.0193 54.9974 26.0193 54.9669C25.9888 54.9364 25.9583 54.9059 25.8668 54.9059V54.8754L26.9954 55.0279L26.9649 55.333H26.9039C26.9039 55.2415 26.8734 55.1805 26.8429 55.15C26.8124 55.1195 26.7209 55.089 26.5989 55.089L26.3243 55.0584C26.2938 55.0584 26.2633 55.0584 26.2633 55.0584C26.2633 55.0584 26.2328 55.089 26.2328 55.1195L26.1718 55.577L26.5074 55.6075C26.5989 55.6075 26.6599 55.6075 26.6904 55.577C26.7209 55.5465 26.7514 55.516 26.7819 55.4245H26.8429L26.7819 55.9125H26.7209C26.7209 55.821 26.7209 55.76 26.6904 55.7295C26.6599 55.699 26.5989 55.6685 26.5379 55.6685L26.2023 55.638L26.0803 56.1871Z" fill="#006C53"/>
<path d="M28.6731 55.272H28.5511C28.4291 55.272 28.3376 55.272 28.3071 55.3025C28.2766 55.333 28.2156 55.394 28.1851 55.516H28.1241L28.1546 55.15L29.3442 55.211V55.577H29.2832C29.2527 55.455 29.2222 55.394 29.1917 55.3635C29.1612 55.333 29.0697 55.3025 28.9476 55.3025H28.8256L28.7646 56.4006C28.7646 56.4921 28.7646 56.5226 28.7951 56.5531C28.8256 56.5836 28.8866 56.5836 28.9476 56.6141V56.6446L28.3376 56.6141V56.5836C28.4291 56.5836 28.4901 56.5836 28.4901 56.5531C28.5206 56.5226 28.5206 56.4616 28.5206 56.3701L28.6731 55.272Z" fill="#006C53"/>
<path d="M30.6863 56.4006L30.6558 55.455C30.6558 55.3635 30.6558 55.333 30.6253 55.3025C30.5948 55.272 30.5338 55.272 30.4423 55.272V55.2415L31.0829 55.211V55.2415C30.9913 55.2415 30.9303 55.272 30.8998 55.272C30.8693 55.3025 30.8693 55.333 30.8693 55.4245L30.8998 56.3701C30.8998 56.4616 30.9303 56.4921 30.9303 56.5226C30.9608 56.5531 31.0218 56.5531 31.1134 56.5531V56.5836L30.4728 56.6141V56.5836C30.5643 56.5836 30.6253 56.5531 30.6558 56.5531C30.6863 56.5226 30.7168 56.4616 30.6863 56.4006ZM30.7473 54.8449C30.7778 54.8449 30.8083 54.8449 30.8388 54.8754C30.8693 54.9059 30.8693 54.9059 30.8693 54.9365C30.8693 54.967 30.8693 54.9975 30.8388 54.9975C30.8083 55.028 30.7778 55.028 30.7778 55.028C30.7473 55.028 30.7168 55.028 30.7168 54.9975C30.6863 54.967 30.6863 54.967 30.6863 54.9365C30.6863 54.9059 30.6863 54.8754 30.7168 54.8754L30.7473 54.8449Z" fill="#006C53"/>
<path d="M33.0351 56.1871C33.0351 56.1261 33.0046 56.0651 32.9436 56.0041C32.8826 55.9431 32.8216 55.9126 32.7605 55.882C32.6995 55.8515 32.608 55.821 32.547 55.7905C32.486 55.76 32.425 55.7295 32.364 55.6685C32.303 55.6075 32.2725 55.5465 32.2725 55.455C32.2725 55.333 32.2725 55.272 32.364 55.1805C32.425 55.1195 32.5165 55.0585 32.608 55.0585C32.669 55.0585 32.73 55.0585 32.7911 55.089C32.8521 55.1195 32.9131 55.1195 32.9131 55.1195C32.9436 55.1195 32.9741 55.089 32.9741 55.028H33.0046L33.0961 55.4855H33.0351C32.9741 55.3635 32.9131 55.272 32.8521 55.2415C32.791 55.1805 32.6995 55.1805 32.608 55.1805C32.547 55.1805 32.486 55.211 32.4555 55.2415C32.425 55.272 32.3945 55.333 32.3945 55.394C32.3945 55.455 32.425 55.516 32.486 55.5465C32.547 55.577 32.6385 55.638 32.73 55.699C32.8826 55.76 32.9741 55.821 33.0656 55.882C33.1266 55.9431 33.1876 56.0346 33.1876 56.1261C33.1876 56.2481 33.1571 56.3396 33.0961 56.4006C33.0351 56.4921 32.9131 56.5226 32.7911 56.5531C32.73 56.5531 32.6385 56.5531 32.5775 56.5531C32.5165 56.5226 32.4555 56.5226 32.425 56.5226C32.425 56.5226 32.3945 56.5226 32.3945 56.5531C32.3945 56.5836 32.3945 56.5836 32.3945 56.6141H32.3335L32.2115 56.1871H32.2725C32.3335 56.3091 32.3945 56.4006 32.486 56.4616C32.547 56.5226 32.6385 56.5226 32.73 56.5226C32.8216 56.5226 32.8826 56.4921 32.9131 56.4311C33.0351 56.3091 33.0656 56.2481 33.0351 56.1871Z" fill="#006C53"/>
<path d="M35.6889 54.6009V54.6314C35.6279 54.6314 35.5974 54.6619 35.5669 54.7229C35.5364 54.7534 35.5059 54.845 35.4448 54.9365L35.2313 55.455L35.3228 55.8516C35.3533 55.9431 35.3533 55.9736 35.3838 56.0041C35.4143 56.0346 35.4754 56.0346 35.5669 56.0041V56.0346L34.9263 56.1566V56.1261C35.0178 56.0956 35.0788 56.0651 35.0788 56.0651C35.1093 56.0346 35.1093 55.9736 35.0788 55.8821L35.0178 55.516L34.6518 55.1805C34.5603 55.089 34.4992 55.028 34.4382 54.9975C34.4077 54.967 34.3467 54.9365 34.3467 54.9365C34.3162 54.9365 34.2857 54.9365 34.2552 54.9365V54.906L34.8348 54.7839V54.8144C34.7433 54.8449 34.6823 54.8755 34.7128 54.906C34.7128 54.9365 34.7433 54.967 34.7738 54.9975L35.1703 55.394L35.3838 54.8754C35.3838 54.8449 35.4143 54.8144 35.3838 54.7839C35.3838 54.7534 35.3533 54.7534 35.3533 54.7229C35.3228 54.7229 35.2923 54.7229 35.2313 54.7229V54.6924L35.6889 54.6009Z" fill="#006C53"/>
<path d="M37.458 55.394C37.458 55.4245 37.4885 55.455 37.5191 55.455C37.5496 55.455 37.6106 55.455 37.7021 55.4245L37.7631 55.394C37.9156 55.3635 38.0071 55.3025 38.0681 55.2415C38.1291 55.1805 38.1596 55.089 38.1596 54.967L38.2206 54.9365V55.3025L37.1225 55.638V55.6075C37.1835 55.577 37.2445 55.5465 37.2445 55.516C37.2445 55.4855 37.2445 55.4245 37.2445 55.3635L36.97 54.4484C36.9395 54.3874 36.909 54.3264 36.909 54.3264C36.8785 54.2959 36.8175 54.3264 36.7565 54.3264V54.2959L37.8241 53.9604L37.9156 54.2349L37.8546 54.2654C37.8241 54.1739 37.7631 54.1434 37.7326 54.1129C37.7021 54.1129 37.6106 54.1129 37.4885 54.1434L37.214 54.2349C37.1835 54.2349 37.1835 54.2654 37.153 54.2654C37.153 54.2654 37.153 54.2959 37.153 54.3264L37.275 54.784L37.5801 54.6924C37.6716 54.6619 37.7326 54.6314 37.7326 54.6009C37.7631 54.5704 37.7631 54.5094 37.7326 54.4179H37.7936L37.9461 54.8755H37.8851C37.8546 54.7839 37.8241 54.7534 37.7631 54.7229C37.7326 54.6924 37.6716 54.7229 37.5801 54.7534L37.275 54.845L37.458 55.394Z" fill="#006C53"/>
<path d="M40.2644 53.1062C40.2339 53.1368 40.2034 53.1368 40.1729 53.1673C40.1424 53.1673 40.1424 53.1978 40.1424 53.2283C40.1424 53.2588 40.1424 53.2893 40.1424 53.3198C40.1424 53.3503 40.1729 53.4113 40.1729 53.4723L40.5999 54.5094H40.5694L39.2578 53.7773L39.5628 54.5399C39.5933 54.6314 39.6543 54.6924 39.6848 54.7229C39.7153 54.7534 39.7763 54.7534 39.8678 54.7229V54.7534L39.4103 54.9364V54.9059C39.5018 54.8754 39.5323 54.8144 39.5323 54.7839C39.5323 54.7534 39.5323 54.6619 39.4713 54.5704L39.1052 53.7163C39.0442 53.6858 39.0137 53.6553 38.9832 53.6553C38.9527 53.6553 38.9222 53.6553 38.8917 53.6858V53.6553L39.2273 53.5028L40.3864 54.1434L40.1119 53.4723C40.0813 53.3808 40.0203 53.3198 39.9898 53.2893C39.9593 53.2588 39.8983 53.2588 39.8068 53.2893L39.7763 53.2588L40.2339 53.0757L40.2644 53.1062Z" fill="#006C53"/>
<path d="M39.4408 39.3798C39.3493 39.2883 39.2578 39.2272 39.1358 39.2578C38.9832 39.3188 38.8612 39.3188 38.8307 39.3188C38.7697 39.3188 38.7392 39.2273 38.7087 39.0747C38.6172 38.8002 38.5257 38.6172 38.5257 38.4952C38.3427 37.8241 38.1902 36.97 38.0986 36.0244C38.0071 35.1703 37.9766 34.3772 37.9766 33.5841C37.9766 32.547 38.0071 31.5404 38.0986 30.5033C38.1596 29.8627 38.1902 29.3747 38.2512 29.0391C38.4037 27.636 38.5257 26.4769 38.6477 25.6533C38.9222 23.8536 39.1053 22.4199 39.1968 21.3218C39.2578 20.8948 39.2883 20.2847 39.3493 19.4306L39.4408 18.485C39.4713 18.2715 39.4713 18.058 39.4103 17.8139C39.3798 17.5699 39.3493 17.4174 39.3493 17.2954L39.2273 16.8988C39.1358 16.6548 38.9222 16.5328 38.5867 16.5023C38.3122 16.5023 38.0681 16.5938 37.8851 16.7768L37.3666 17.3259C36.8785 17.9664 36.3294 18.79 35.7499 19.8577C34.7738 21.5658 33.9197 23.3655 33.1571 25.2567L31.2659 30.2898C31.2354 30.3508 31.2049 30.4423 31.1744 30.5643C31.1439 30.6863 31.0524 30.8083 30.9609 30.9304V30.6558L31.1134 25.6228C31.1744 24.4942 31.1744 23.6401 31.1439 23.091C31.0829 22.4809 31.0219 22.0539 30.9609 21.7794C30.8694 21.3523 30.6253 21.1388 30.2593 21.1388C30.1373 21.1388 30.0153 21.1388 29.9543 21.1693C29.7712 21.1998 29.5882 21.2913 29.4052 21.4743C29.1307 21.8404 28.9782 22.1149 28.8866 22.2979C28.4901 22.969 28.1851 23.7011 27.941 24.4942C26.9039 27.2395 26.0498 30.4423 25.3483 34.1027L24.0976 40.7524L23.8841 41.637C23.8231 41.881 23.7316 42.0946 23.6401 42.3386C23.335 43.2537 22.2064 44.2298 22.786 40.5694C22.8775 39.9593 22.969 39.5323 23.091 38.8612C24.3722 32.0895 27.27 26.6599 27.0869 21.9929C26.9954 19.8271 25.5923 18.485 24.2501 17.9664C20.3457 16.1363 17.2649 19.0646 16.6853 20.3762C16.5938 20.5592 16.7768 20.7728 16.9598 20.7422C17.1124 20.7117 17.2954 20.6812 17.4784 20.6812C18.2715 20.5897 19.0646 20.6812 19.8577 20.8033C21.9319 21.1693 23.7316 19.1256 23.7316 19.1256C22.0539 17.8444 20.1017 18.607 19.0951 19.0341C21.5658 16.9903 24.3417 18.79 24.4942 18.9121C25.7448 19.8577 26.9954 21.4133 25.9278 25.5923C25.3788 27.7275 23.1825 34.1942 22.1149 39.3798C21.8709 40.4779 21.6269 41.82 21.7794 42.9487C21.9319 44.3518 22.2674 44.5348 22.786 44.6263C23.1215 44.6873 23.6096 44.6568 23.9451 44.0773C23.9451 44.0468 24.0976 43.8333 24.0976 43.8027C24.1891 43.5587 24.2196 43.5282 24.3722 43.1927V43.1622C24.4637 42.8876 24.5552 42.4301 24.6467 41.8505L26.0498 33.7367C26.5074 31.1134 27.0869 28.6426 27.8495 26.3244C28.2461 24.9822 28.7036 23.7926 29.2222 22.786C29.4052 22.3589 29.6187 22.0234 29.8627 21.7489C29.9238 21.6573 29.9848 21.5963 30.1068 21.6268C30.1678 21.7489 30.1983 21.9014 30.2288 22.0844C30.2593 22.2674 30.2593 22.3894 30.2593 22.4504C30.2593 23.4265 30.2288 24.1586 30.1678 24.6162C30.1068 25.1652 30.0763 25.9583 30.0153 27.0259C29.9543 27.575 29.9238 28.4291 29.8627 29.5882C29.8017 30.0763 29.7712 30.4118 29.7712 30.6253L29.8017 31.3269C29.8017 31.5099 29.8322 31.7844 29.8933 32.1505C29.9543 32.364 30.0458 32.5165 30.1983 32.5775C30.2898 32.6385 30.4118 32.669 30.5948 32.669C30.9304 32.669 31.1744 32.547 31.3574 32.303C31.4184 32.242 31.5099 32.0895 31.6319 31.7844C31.754 31.3269 31.9065 30.9609 32.0285 30.6863C32.3945 29.4967 32.7911 28.3071 33.1571 27.1479C34.0112 24.5857 35.0483 22.2674 36.1769 20.1322C36.5735 19.3391 37.092 18.5155 37.7021 17.6919C37.7326 17.6614 37.9156 17.4479 38.2512 17.0208C38.2817 16.9903 38.3427 16.9903 38.4037 16.9903C38.4647 16.9903 38.4952 17.0513 38.4952 17.1429L38.5257 17.8139C38.5257 18.0275 38.4952 18.3325 38.4342 18.7595C38.4037 18.9426 38.2512 20.1017 37.9766 22.2674L37.7326 23.8841C37.4581 25.4703 37.2751 26.6294 37.1835 27.4225C37.0615 28.3376 36.9395 29.6797 36.8175 31.4794C36.7565 32.3335 36.726 32.9436 36.726 33.3401C36.726 34.1942 36.7565 35.0483 36.848 35.9024C36.9395 36.8785 37.1225 37.6716 37.3056 38.2816C37.5496 38.9527 37.7936 39.5323 38.0681 39.9898C38.2512 40.2644 38.5257 40.4169 38.9222 40.4169C39.2883 40.3864 39.5018 40.2034 39.5018 39.8373C39.5628 39.7153 39.5323 39.5323 39.4408 39.3798Z" fill="#BCECE3"/>
<path d="M4.545 29.5577C4.545 29.8017 4.36198 29.9847 4.11795 29.9847C3.87392 29.9847 3.6604 29.8017 3.6604 29.5577C3.6604 29.3137 3.84342 29.1306 4.08745 29.1306C4.33147 29.1306 4.545 29.3137 4.545 29.5577Z" fill="#006C53"/>
<path d="M56.3396 29.5577C56.3396 29.8017 56.1566 29.9847 55.9126 29.9847C55.6685 29.9847 55.4855 29.8017 55.4855 29.5577C55.4855 29.3137 55.6685 29.1306 55.9126 29.1306C56.1261 29.1306 56.3396 29.3137 56.3396 29.5577Z" fill="#006C53"/>
<path d="M42.3386 52.8927C49.7814 48.8663 55.0585 41.271 55.882 32.4555H55.638C54.8144 41.21 49.5984 48.6833 42.2471 52.6792L42.3386 52.8927Z" fill="#006C53"/>
<path d="M17.6614 52.8927L17.7529 52.6792C10.3711 48.6833 5.15505 41.1795 4.33146 32.425H4.08743C4.94153 41.271 10.2186 48.8663 17.6614 52.8927Z" fill="#006C53"/>
</svg>
